<svg width="288" height="94" viewBox="0 0 288 94" fill="none" xmlns="http://www.w3.org/2000/svg">
<path d="M26.3259 21.288C24.6299 21.288 23.1739 20.928 21.9579 20.208C20.7419 19.472 19.8059 18.456 19.1499 17.16C18.4939 15.848 18.1659 14.336 18.1659 12.624C18.1659 10.912 18.4939 9.4 19.1499 8.088C19.8059 6.776 20.7419 5.752 21.9579 5.016C23.1739 4.28 24.6299 3.912 26.3259 3.912C28.3419 3.912 29.9899 4.416 31.2699 5.424C32.5659 6.416 33.3739 7.816 33.6939 9.624H30.3099C30.1019 8.712 29.6539 8 28.9659 7.488C28.2939 6.96 27.3979 6.696 26.2779 6.696C24.7259 6.696 23.5099 7.224 22.6299 8.28C21.7499 9.336 21.3099 10.784 21.3099 12.624C21.3099 14.464 21.7499 15.912 22.6299 16.968C23.5099 18.008 24.7259 18.528 26.2779 18.528C27.3979 18.528 28.2939 18.288 28.9659 17.808C29.6539 17.312 30.1019 16.632 30.3099 15.768H33.6939C33.3739 17.496 32.5659 18.848 31.2699 19.824C29.9899 20.8 28.3419 21.288 26.3259 21.288ZM36.3413 21V9.096H39.0773L39.3653 11.328C39.7973 10.56 40.3813 9.952 41.1172 9.504C41.8693 9.04 42.7493 8.808 43.7573 8.808V12.048H42.8933C42.2213 12.048 41.6213 12.152 41.0933 12.36C40.5653 12.568 40.1493 12.928 39.8453 13.44C39.5573 13.952 39.4133 14.664 39.4133 15.576V21H36.3413ZM51.4299 21.288C50.2299 21.288 49.1659 21.032 48.2379 20.52C47.3099 20.008 46.5819 19.288 46.0539 18.36C45.5259 17.432 45.2619 16.36 45.2619 15.144C45.2619 13.912 45.5179 12.816 46.0299 11.856C46.5579 10.896 47.2779 10.152 48.1899 9.624C49.1179 9.08 50.2059 8.808 51.4539 8.808C52.6219 8.808 53.6539 9.064 54.5499 9.576C55.4459 10.088 56.1419 10.792 56.6379 11.688C57.1499 12.568 57.4059 13.552 57.4059 14.64C57.4059 14.816 57.3979 15 57.3819 15.192C57.3819 15.384 57.3739 15.584 57.3579 15.792H48.3099C48.3739 16.72 48.6939 17.448 49.2699 17.976C49.8619 18.504 50.5739 18.768 51.4059 18.768C52.0299 18.768 52.5499 18.632 52.9659 18.36C53.3979 18.072 53.7179 17.704 53.9259 17.256H57.0459C56.8219 18.008 56.4459 18.696 55.9179 19.32C55.4059 19.928 54.7659 20.408 53.9979 20.76C53.2459 21.112 52.3899 21.288 51.4299 21.288ZM51.4539 11.304C50.7019 11.304 50.0379 11.52 49.4619 11.952C48.8859 12.368 48.5179 13.008 48.3579 13.872H54.2859C54.2379 13.088 53.9499 12.464 53.4219 12C52.8939 11.536 52.2379 11.304 51.4539 11.304ZM64.0937 21.288C63.0697 21.288 62.2297 21.128 61.5737 20.808C60.9177 20.472 60.4297 20.032 60.1097 19.488C59.7897 18.944 59.6297 18.344 59.6297 17.688C59.6297 16.584 60.0617 15.688 60.9257 15C61.7897 14.312 63.0857 13.968 64.8137 13.968H67.8377V13.68C67.8377 12.864 67.6057 12.264 67.1417 11.88C66.6777 11.496 66.1017 11.304 65.4137 11.304C64.7897 11.304 64.2457 11.456 63.7817 11.76C63.3177 12.048 63.0297 12.48 62.9177 13.056H59.9177C59.9977 12.192 60.2857 11.44 60.7817 10.8C61.2937 10.16 61.9497 9.672 62.7497 9.336C63.5497 8.984 64.4457 8.808 65.4377 8.808C67.1337 8.808 68.4697 9.232 69.4457 10.08C70.4217 10.928 70.9097 12.128 70.9097 13.68V21H68.2937L68.0057 19.08C67.6537 19.72 67.1577 20.248 66.5177 20.664C65.8937 21.08 65.0857 21.288 64.0937 21.288ZM64.7897 18.888C65.6697 18.888 66.3497 18.6 66.8297 18.024C67.3257 17.448 67.6377 16.736 67.7657 15.888H65.1497C64.3337 15.888 63.7497 16.04 63.3977 16.344C63.0457 16.632 62.8697 16.992 62.8697 17.424C62.8697 17.888 63.0457 18.248 63.3977 18.504C63.7497 18.76 64.2137 18.888 64.7897 18.888ZM73.8413 21V9.096H76.5533L76.8173 10.704C77.2013 10.128 77.7053 9.672 78.3293 9.336C78.9693 8.984 79.7053 8.808 80.5373 8.808C82.3773 8.808 83.6813 9.52 84.4493 10.944C84.8813 10.288 85.4573 9.768 86.1773 9.384C86.9133 9 87.7133 8.808 88.5773 8.808C90.1293 8.808 91.3213 9.272 92.1533 10.2C92.9853 11.128 93.4013 12.488 93.4013 14.28V21H90.3293V14.568C90.3293 13.544 90.1293 12.76 89.7293 12.216C89.3453 11.672 88.7453 11.4 87.9293 11.4C87.0973 11.4 86.4253 11.704 85.9133 12.312C85.4173 12.92 85.1693 13.768 85.1693 14.856V21H82.0973V14.568C82.0973 13.544 81.8973 12.76 81.4973 12.216C81.0973 11.672 80.4813 11.4 79.6493 11.4C78.8333 11.4 78.1693 11.704 77.6573 12.312C77.1613 12.92 76.9133 13.768 76.9133 14.856V21H73.8413ZM102.03 21.288C100.878 21.288 99.8378 21.024 98.9098 20.496C97.9978 19.968 97.2698 19.24 96.7258 18.312C96.1978 17.368 95.9338 16.28 95.9338 15.048C95.9338 13.816 96.2058 12.736 96.7498 11.808C97.2938 10.864 98.0218 10.128 98.9338 9.6C99.8618 9.072 100.902 8.808 102.054 8.808C103.19 8.808 104.214 9.072 105.126 9.6C106.054 10.128 106.782 10.864 107.31 11.808C107.854 12.736 108.126 13.816 108.126 15.048C108.126 16.28 107.854 17.368 107.31 18.312C106.782 19.24 106.054 19.968 105.126 20.496C104.198 21.024 103.166 21.288 102.03 21.288ZM102.03 18.624C102.83 18.624 103.526 18.328 104.118 17.736C104.71 17.128 105.006 16.232 105.006 15.048C105.006 13.864 104.71 12.976 104.118 12.384C103.526 11.776 102.838 11.472 102.054 11.472C101.238 11.472 100.534 11.776 99.9418 12.384C99.3658 12.976 99.0778 13.864 99.0778 15.048C99.0778 16.232 99.3658 17.128 99.9418 17.736C100.534 18.328 101.23 18.624 102.03 18.624ZM115.793 21.288C114.737 21.288 113.809 21.12 113.009 20.784C112.209 20.432 111.569 19.952 111.089 19.344C110.609 18.736 110.321 18.032 110.225 17.232H113.321C113.417 17.696 113.673 18.096 114.089 18.432C114.521 18.752 115.073 18.912 115.745 18.912C116.417 18.912 116.905 18.776 117.209 18.504C117.529 18.232 117.689 17.92 117.689 17.568C117.689 17.056 117.465 16.712 117.017 16.536C116.569 16.344 115.945 16.16 115.145 15.984C114.633 15.872 114.113 15.736 113.585 15.576C113.057 15.416 112.569 15.216 112.121 14.976C111.689 14.72 111.337 14.4 111.065 14.016C110.793 13.616 110.657 13.128 110.657 12.552C110.657 11.496 111.073 10.608 111.905 9.888C112.753 9.168 113.937 8.808 115.457 8.808C116.865 8.808 117.985 9.136 118.817 9.792C119.665 10.448 120.169 11.352 120.329 12.504H117.425C117.249 11.624 116.585 11.184 115.433 11.184C114.857 11.184 114.409 11.296 114.089 11.52C113.785 11.744 113.633 12.024 113.633 12.36C113.633 12.712 113.865 12.992 114.329 13.2C114.793 13.408 115.409 13.6 116.177 13.776C117.009 13.968 117.769 14.184 118.457 14.424C119.161 14.648 119.721 14.992 120.137 15.456C120.553 15.904 120.761 16.552 120.761 17.4C120.777 18.136 120.585 18.8 120.185 19.392C119.785 19.984 119.209 20.448 118.457 20.784C117.705 21.12 116.817 21.288 115.793 21.288ZM140.673 9.096V21H137.961L137.721 18.984C137.353 19.688 136.817 20.248 136.113 20.664C135.425 21.08 134.609 21.288 133.665 21.288C132.193 21.288 131.049 20.824 130.233 19.896C129.417 18.968 129.009 17.608 129.009 15.816V9.096H132.081V15.528C132.081 16.552 132.289 17.336 132.705 17.88C133.121 18.424 133.769 18.696 134.649 18.696C135.513 18.696 136.217 18.392 136.761 17.784C137.321 17.176 137.601 16.328 137.601 15.24V9.096H140.673ZM143.802 21V9.096H146.514L146.754 11.112C147.122 10.408 147.65 9.848 148.338 9.432C149.042 9.016 149.866 8.808 150.81 8.808C152.282 8.808 153.426 9.272 154.242 10.2C155.058 11.128 155.466 12.488 155.466 14.28V21H152.394V14.568C152.394 13.544 152.186 12.76 151.77 12.216C151.354 11.672 150.706 11.4 149.826 11.4C148.962 11.4 148.25 11.704 147.69 12.312C147.146 12.92 146.874 13.768 146.874 14.856V21H143.802ZM164.123 26.28V9.096H166.859L167.195 10.8C167.579 10.272 168.083 9.808 168.707 9.408C169.347 9.008 170.171 8.808 171.179 8.808C172.299 8.808 173.299 9.08 174.179 9.624C175.059 10.168 175.755 10.912 176.267 11.856C176.779 12.8 177.035 13.872 177.035 15.072C177.035 16.272 176.779 17.344 176.267 18.288C175.755 19.216 175.059 19.952 174.179 20.496C173.299 21.024 172.299 21.288 171.179 21.288C170.283 21.288 169.499 21.12 168.827 20.784C168.155 20.448 167.611 19.976 167.195 19.368V26.28H164.123ZM170.531 18.6C171.507 18.6 172.315 18.272 172.955 17.616C173.595 16.96 173.915 16.112 173.915 15.072C173.915 14.032 173.595 13.176 172.955 12.504C172.315 11.832 171.507 11.496 170.531 11.496C169.539 11.496 168.723 11.832 168.083 12.504C167.459 13.16 167.147 14.008 167.147 15.048C167.147 16.088 167.459 16.944 168.083 17.616C168.723 18.272 169.539 18.6 170.531 18.6ZM179.779 21V9.096H182.515L182.803 11.328C183.235 10.56 183.819 9.952 184.555 9.504C185.307 9.04 186.187 8.808 187.195 8.808V12.048H186.331C185.659 12.048 185.059 12.152 184.531 12.36C184.003 12.568 183.587 12.928 183.283 13.44C182.995 13.952 182.851 14.664 182.851 15.576V21H179.779ZM194.795 21.288C193.643 21.288 192.603 21.024 191.675 20.496C190.763 19.968 190.035 19.24 189.491 18.312C188.963 17.368 188.699 16.28 188.699 15.048C188.699 13.816 188.971 12.736 189.515 11.808C190.059 10.864 190.787 10.128 191.699 9.6C192.627 9.072 193.667 8.808 194.819 8.808C195.955 8.808 196.979 9.072 197.891 9.6C198.819 10.128 199.547 10.864 200.075 11.808C200.619 12.736 200.891 13.816 200.891 15.048C200.891 16.28 200.619 17.368 200.075 18.312C199.547 19.24 198.819 19.968 197.891 20.496C196.963 21.024 195.931 21.288 194.795 21.288ZM194.795 18.624C195.595 18.624 196.291 18.328 196.883 17.736C197.475 17.128 197.771 16.232 197.771 15.048C197.771 13.864 197.475 12.976 196.883 12.384C196.291 11.776 195.603 11.472 194.819 11.472C194.003 11.472 193.299 11.776 192.707 12.384C192.131 12.976 191.843 13.864 191.843 15.048C191.843 16.232 192.131 17.128 192.707 17.736C193.299 18.328 193.995 18.624 194.795 18.624ZM209.11 21.288C207.99 21.288 206.99 21.016 206.11 20.472C205.23 19.928 204.534 19.184 204.022 18.24C203.51 17.296 203.254 16.224 203.254 15.024C203.254 13.824 203.51 12.76 204.022 11.832C204.534 10.888 205.23 10.152 206.11 9.624C206.99 9.08 207.99 8.808 209.11 8.808C210.006 8.808 210.79 8.976 211.462 9.312C212.134 9.648 212.678 10.12 213.094 10.728V3.72H216.166V21H213.43L213.094 19.296C212.71 19.824 212.198 20.288 211.558 20.688C210.934 21.088 210.118 21.288 209.11 21.288ZM209.758 18.6C210.75 18.6 211.558 18.272 212.182 17.616C212.822 16.944 213.142 16.088 213.142 15.048C213.142 14.008 212.822 13.16 212.182 12.504C211.558 11.832 210.75 11.496 209.758 11.496C208.782 11.496 207.974 11.824 207.334 12.48C206.694 13.136 206.374 13.984 206.374 15.024C206.374 16.064 206.694 16.92 207.334 17.592C207.974 18.264 208.782 18.6 209.758 18.6ZM230.766 9.096V21H228.054L227.814 18.984C227.446 19.688 226.91 20.248 226.206 20.664C225.518 21.08 224.702 21.288 223.758 21.288C222.286 21.288 221.142 20.824 220.326 19.896C219.51 18.968 219.102 17.608 219.102 15.816V9.096H222.174V15.528C222.174 16.552 222.382 17.336 222.798 17.88C223.214 18.424 223.862 18.696 224.742 18.696C225.606 18.696 226.31 18.392 226.854 17.784C227.414 17.176 227.694 16.328 227.694 15.24V9.096H230.766ZM239.728 21.288C238.512 21.288 237.44 21.024 236.512 20.496C235.584 19.968 234.848 19.232 234.304 18.288C233.776 17.344 233.512 16.264 233.512 15.048C233.512 13.832 233.776 12.752 234.304 11.808C234.848 10.864 235.584 10.128 236.512 9.6C237.44 9.072 238.512 8.808 239.728 8.808C241.248 8.808 242.528 9.208 243.568 10.008C244.608 10.792 245.272 11.88 245.56 13.272H242.32C242.16 12.696 241.84 12.248 241.36 11.928C240.896 11.592 240.344 11.424 239.704 11.424C238.856 11.424 238.136 11.744 237.544 12.384C236.952 13.024 236.656 13.912 236.656 15.048C236.656 16.184 236.952 17.072 237.544 17.712C238.136 18.352 238.856 18.672 239.704 18.672C240.344 18.672 240.896 18.512 241.36 18.192C241.84 17.872 242.16 17.416 242.32 16.824H245.56C245.272 18.168 244.608 19.248 243.568 20.064C242.528 20.88 241.248 21.288 239.728 21.288ZM253.427 21C252.179 21 251.179 20.696 250.427 20.088C249.675 19.48 249.299 18.4 249.299 16.848V11.664H247.259V9.096H249.299L249.659 5.904H252.371V9.096H255.587V11.664H252.371V16.872C252.371 17.448 252.491 17.848 252.73 18.072C252.987 18.28 253.419 18.384 254.027 18.384H255.515V21H253.427ZM263.631 21.288C262.479 21.288 261.439 21.024 260.511 20.496C259.599 19.968 258.871 19.24 258.327 18.312C257.799 17.368 257.535 16.28 257.535 15.048C257.535 13.816 257.807 12.736 258.351 11.808C258.895 10.864 259.623 10.128 260.535 9.6C261.463 9.072 262.503 8.808 263.655 8.808C264.791 8.808 265.815 9.072 266.727 9.6C267.655 10.128 268.383 10.864 268.911 11.808C269.455 12.736 269.727 13.816 269.727 15.048C269.727 16.28 269.455 17.368 268.911 18.312C268.383 19.24 267.655 19.968 266.727 20.496C265.799 21.024 264.767 21.288 263.631 21.288ZM263.631 18.624C264.431 18.624 265.127 18.328 265.719 17.736C266.311 17.128 266.607 16.232 266.607 15.048C266.607 13.864 266.311 12.976 265.719 12.384C265.127 11.776 264.439 11.472 263.655 11.472C262.839 11.472 262.135 11.776 261.543 12.384C260.967 12.976 260.679 13.864 260.679 15.048C260.679 16.232 260.967 17.128 261.543 17.736C262.135 18.328 262.831 18.624 263.631 18.624ZM50.812 47.288C49.756 47.288 48.828 47.12 48.028 46.784C47.228 46.432 46.588 45.952 46.108 45.344C45.628 44.736 45.34 44.032 45.244 43.232H48.34C48.436 43.696 48.692 44.096 49.108 44.432C49.54 44.752 50.092 44.912 50.764 44.912C51.436 44.912 51.924 44.776 52.228 44.504C52.548 44.232 52.708 43.92 52.708 43.568C52.708 43.056 52.484 42.712 52.036 42.536C51.588 42.344 50.964 42.16 50.164 41.984C49.652 41.872 49.132 41.736 48.604 41.576C48.076 41.416 47.588 41.216 47.14 40.976C46.708 40.72 46.356 40.4 46.084 40.016C45.812 39.616 45.676 39.128 45.676 38.552C45.676 37.496 46.092 36.608 46.924 35.888C47.772 35.168 48.956 34.808 50.476 34.808C51.884 34.808 53.004 35.136 53.836 35.792C54.684 36.448 55.188 37.352 55.348 38.504H52.444C52.268 37.624 51.604 37.184 50.452 37.184C49.876 37.184 49.428 37.296 49.108 37.52C48.804 37.744 48.652 38.024 48.652 38.36C48.652 38.712 48.884 38.992 49.348 39.2C49.812 39.408 50.428 39.6 51.196 39.776C52.028 39.968 52.788 40.184 53.476 40.424C54.18 40.648 54.74 40.992 55.156 41.456C55.572 41.904 55.78 42.552 55.78 43.4C55.796 44.136 55.604 44.8 55.204 45.392C54.804 45.984 54.228 46.448 53.476 46.784C52.724 47.12 51.836 47.288 50.812 47.288ZM60.1574 33.248C59.5974 33.248 59.1334 33.08 58.7654 32.744C58.4134 32.408 58.2374 31.984 58.2374 31.472C58.2374 30.96 58.4134 30.544 58.7654 30.224C59.1334 29.888 59.5974 29.72 60.1574 29.72C60.7174 29.72 61.1734 29.888 61.5254 30.224C61.8934 30.544 62.0774 30.96 62.0774 31.472C62.0774 31.984 61.8934 32.408 61.5254 32.744C61.1734 33.08 60.7174 33.248 60.1574 33.248ZM58.6214 47V35.096H61.6934V47H58.6214ZM64.8998 47V35.096H67.6118L67.8518 37.112C68.2198 36.408 68.7478 35.848 69.4358 35.432C70.1398 35.016 70.9638 34.808 71.9078 34.808C73.3798 34.808 74.5238 35.272 75.3398 36.2C76.1558 37.128 76.5638 38.488 76.5638 40.28V47H73.4918V40.568C73.4918 39.544 73.2838 38.76 72.8678 38.216C72.4518 37.672 71.8038 37.4 70.9238 37.4C70.0598 37.4 69.3478 37.704 68.7878 38.312C68.2438 38.92 67.9718 39.768 67.9718 40.856V47H64.8998ZM91.0522 47.288C89.8362 47.288 88.7642 47.024 87.8362 46.496C86.9082 45.968 86.1722 45.232 85.6282 44.288C85.1002 43.344 84.8362 42.264 84.8362 41.048C84.8362 39.832 85.1002 38.752 85.6282 37.808C86.1722 36.864 86.9082 36.128 87.8362 35.6C88.7642 35.072 89.8362 34.808 91.0522 34.808C92.5722 34.808 93.8522 35.208 94.8922 36.008C95.9322 36.792 96.5962 37.88 96.8842 39.272H93.6442C93.4842 38.696 93.1642 38.248 92.6842 37.928C92.2202 37.592 91.6682 37.424 91.0282 37.424C90.1802 37.424 89.4602 37.744 88.8682 38.384C88.2762 39.024 87.9802 39.912 87.9802 41.048C87.9802 42.184 88.2762 43.072 88.8682 43.712C89.4602 44.352 90.1802 44.672 91.0282 44.672C91.6682 44.672 92.2202 44.512 92.6842 44.192C93.1642 43.872 93.4842 43.416 93.6442 42.824H96.8842C96.5962 44.168 95.9322 45.248 94.8922 46.064C93.8522 46.88 92.5722 47.288 91.0522 47.288ZM105.323 47.288C104.171 47.288 103.131 47.024 102.203 46.496C101.291 45.968 100.563 45.24 100.019 44.312C99.4908 43.368 99.2268 42.28 99.2268 41.048C99.2268 39.816 99.4988 38.736 100.043 37.808C100.587 36.864 101.315 36.128 102.227 35.6C103.155 35.072 104.195 34.808 105.347 34.808C106.483 34.808 107.507 35.072 108.419 35.6C109.347 36.128 110.075 36.864 110.603 37.808C111.147 38.736 111.419 39.816 111.419 41.048C111.419 42.28 111.147 43.368 110.603 44.312C110.075 45.24 109.347 45.968 108.419 46.496C107.491 47.024 106.459 47.288 105.323 47.288ZM105.323 44.624C106.123 44.624 106.819 44.328 107.411 43.736C108.003 43.128 108.299 42.232 108.299 41.048C108.299 39.864 108.003 38.976 107.411 38.384C106.819 37.776 106.131 37.472 105.347 37.472C104.531 37.472 103.827 37.776 103.235 38.384C102.659 38.976 102.371 39.864 102.371 41.048C102.371 42.232 102.659 43.128 103.235 43.736C103.827 44.328 104.523 44.624 105.323 44.624ZM114.165 47V35.096H116.877L117.141 36.704C117.525 36.128 118.029 35.672 118.653 35.336C119.293 34.984 120.029 34.808 120.861 34.808C122.701 34.808 124.005 35.52 124.773 36.944C125.205 36.288 125.781 35.768 126.501 35.384C127.237 35 128.037 34.808 128.901 34.808C130.453 34.808 131.645 35.272 132.477 36.2C133.309 37.128 133.725 38.488 133.725 40.28V47H130.653V40.568C130.653 39.544 130.453 38.76 130.053 38.216C129.669 37.672 129.069 37.4 128.253 37.4C127.421 37.4 126.749 37.704 126.237 38.312C125.741 38.92 125.493 39.768 125.493 40.856V47H122.421V40.568C122.421 39.544 122.221 38.76 121.821 38.216C121.421 37.672 120.805 37.4 119.973 37.4C119.157 37.4 118.493 37.704 117.981 38.312C117.485 38.92 117.237 39.768 117.237 40.856V47H114.165ZM136.642 52.28V35.096H139.378L139.714 36.8C140.098 36.272 140.602 35.808 141.226 35.408C141.866 35.008 142.69 34.808 143.698 34.808C144.818 34.808 145.818 35.08 146.698 35.624C147.578 36.168 148.274 36.912 148.786 37.856C149.298 38.8 149.554 39.872 149.554 41.072C149.554 42.272 149.298 43.344 148.786 44.288C148.274 45.216 147.578 45.952 146.698 46.496C145.818 47.024 144.818 47.288 143.698 47.288C142.802 47.288 142.018 47.12 141.346 46.784C140.674 46.448 140.13 45.976 139.714 45.368V52.28H136.642ZM143.05 44.6C144.026 44.6 144.834 44.272 145.474 43.616C146.114 42.96 146.434 42.112 146.434 41.072C146.434 40.032 146.114 39.176 145.474 38.504C144.834 37.832 144.026 37.496 143.05 37.496C142.058 37.496 141.242 37.832 140.602 38.504C139.978 39.16 139.666 40.008 139.666 41.048C139.666 42.088 139.978 42.944 140.602 43.616C141.242 44.272 142.058 44.6 143.05 44.6ZM156.402 47.288C155.378 47.288 154.538 47.128 153.882 46.808C153.226 46.472 152.738 46.032 152.418 45.488C152.098 44.944 151.938 44.344 151.938 43.688C151.938 42.584 152.37 41.688 153.234 41C154.098 40.312 155.394 39.968 157.122 39.968H160.146V39.68C160.146 38.864 159.914 38.264 159.45 37.88C158.986 37.496 158.41 37.304 157.722 37.304C157.098 37.304 156.554 37.456 156.09 37.76C155.626 38.048 155.338 38.48 155.226 39.056H152.226C152.306 38.192 152.594 37.44 153.09 36.8C153.602 36.16 154.258 35.672 155.058 35.336C155.858 34.984 156.754 34.808 157.746 34.808C159.442 34.808 160.778 35.232 161.754 36.08C162.73 36.928 163.218 38.128 163.218 39.68V47H160.602L160.314 45.08C159.962 45.72 159.466 46.248 158.826 46.664C158.202 47.08 157.394 47.288 156.402 47.288ZM157.098 44.888C157.978 44.888 158.658 44.6 159.138 44.024C159.634 43.448 159.946 42.736 160.074 41.888H157.458C156.642 41.888 156.058 42.04 155.706 42.344C155.354 42.632 155.178 42.992 155.178 43.424C155.178 43.888 155.354 44.248 155.706 44.504C156.058 44.76 156.522 44.888 157.098 44.888ZM166.15 47V35.096H168.886L169.174 37.328C169.606 36.56 170.19 35.952 170.926 35.504C171.678 35.04 172.558 34.808 173.566 34.808V38.048H172.702C172.03 38.048 171.43 38.152 170.902 38.36C170.374 38.568 169.958 38.928 169.654 39.44C169.366 39.952 169.222 40.664 169.222 41.576V47H166.15ZM179.769 47.288C178.745 47.288 177.905 47.128 177.249 46.808C176.593 46.472 176.105 46.032 175.785 45.488C175.465 44.944 175.305 44.344 175.305 43.688C175.305 42.584 175.737 41.688 176.601 41C177.465 40.312 178.761 39.968 180.489 39.968H183.513V39.68C183.513 38.864 183.281 38.264 182.817 37.88C182.353 37.496 181.777 37.304 181.089 37.304C180.465 37.304 179.921 37.456 179.457 37.76C178.993 38.048 178.705 38.48 178.593 39.056H175.593C175.673 38.192 175.961 37.44 176.457 36.8C176.969 36.16 177.625 35.672 178.425 35.336C179.225 34.984 180.121 34.808 181.113 34.808C182.809 34.808 184.145 35.232 185.121 36.08C186.097 36.928 186.585 38.128 186.585 39.68V47H183.969L183.681 45.08C183.329 45.72 182.833 46.248 182.193 46.664C181.569 47.08 180.761 47.288 179.769 47.288ZM180.465 44.888C181.345 44.888 182.025 44.6 182.505 44.024C183.001 43.448 183.313 42.736 183.441 41.888H180.825C180.009 41.888 179.425 42.04 179.073 42.344C178.721 42.632 178.545 42.992 178.545 43.424C178.545 43.888 178.721 44.248 179.073 44.504C179.425 44.76 179.889 44.888 180.465 44.888ZM195.349 47.288C194.133 47.288 193.061 47.024 192.133 46.496C191.205 45.968 190.469 45.232 189.925 44.288C189.397 43.344 189.133 42.264 189.133 41.048C189.133 39.832 189.397 38.752 189.925 37.808C190.469 36.864 191.205 36.128 192.133 35.6C193.061 35.072 194.133 34.808 195.349 34.808C196.869 34.808 198.149 35.208 199.189 36.008C200.229 36.792 200.893 37.88 201.181 39.272H197.941C197.781 38.696 197.461 38.248 196.981 37.928C196.517 37.592 195.965 37.424 195.325 37.424C194.477 37.424 193.757 37.744 193.165 38.384C192.573 39.024 192.277 39.912 192.277 41.048C192.277 42.184 192.573 43.072 193.165 43.712C193.757 44.352 194.477 44.672 195.325 44.672C195.965 44.672 196.517 44.512 196.981 44.192C197.461 43.872 197.781 43.416 197.941 42.824H201.181C200.893 44.168 200.229 45.248 199.189 46.064C198.149 46.88 196.869 47.288 195.349 47.288ZM205.564 33.248C205.004 33.248 204.54 33.08 204.172 32.744C203.82 32.408 203.644 31.984 203.644 31.472C203.644 30.96 203.82 30.544 204.172 30.224C204.54 29.888 205.004 29.72 205.564 29.72C206.124 29.72 206.58 29.888 206.932 30.224C207.3 30.544 207.484 30.96 207.484 31.472C207.484 31.984 207.3 32.408 206.932 32.744C206.58 33.08 206.124 33.248 205.564 33.248ZM204.028 47V35.096H207.1V47H204.028ZM216.018 47.288C214.866 47.288 213.826 47.024 212.898 46.496C211.986 45.968 211.258 45.24 210.714 44.312C210.186 43.368 209.922 42.28 209.922 41.048C209.922 39.816 210.194 38.736 210.738 37.808C211.282 36.864 212.01 36.128 212.922 35.6C213.85 35.072 214.89 34.808 216.042 34.808C217.178 34.808 218.202 35.072 219.114 35.6C220.042 36.128 220.77 36.864 221.298 37.808C221.842 38.736 222.114 39.816 222.114 41.048C222.114 42.28 221.842 43.368 221.298 44.312C220.77 45.24 220.042 45.968 219.114 46.496C218.186 47.024 217.154 47.288 216.018 47.288ZM216.018 44.624C216.818 44.624 217.514 44.328 218.106 43.736C218.698 43.128 218.994 42.232 218.994 41.048C218.994 39.864 218.698 38.976 218.106 38.384C217.514 37.776 216.826 37.472 216.042 37.472C215.226 37.472 214.522 37.776 213.93 38.384C213.354 38.976 213.066 39.864 213.066 41.048C213.066 42.232 213.354 43.128 213.93 43.736C214.522 44.328 215.218 44.624 216.018 44.624ZM215.226 34.136V31.976L220.65 29.048V31.544L215.226 34.136ZM224.861 47V35.096H227.573L227.813 37.112C228.181 36.408 228.709 35.848 229.397 35.432C230.101 35.016 230.925 34.808 231.869 34.808C233.341 34.808 234.485 35.272 235.301 36.2C236.117 37.128 236.525 38.488 236.525 40.28V47H233.453V40.568C233.453 39.544 233.245 38.76 232.829 38.216C232.413 37.672 231.765 37.4 230.885 37.4C230.021 37.4 229.309 37.704 228.749 38.312C228.205 38.92 227.933 39.768 227.933 40.856V47H224.861ZM240.782 47.168C240.222 47.168 239.758 46.992 239.39 46.64C239.038 46.288 238.862 45.864 238.862 45.368C238.862 44.856 239.038 44.424 239.39 44.072C239.758 43.72 240.222 43.544 240.782 43.544C241.342 43.544 241.798 43.72 242.15 44.072C242.518 44.424 242.702 44.856 242.702 45.368C242.702 45.864 242.518 46.288 242.15 46.64C241.798 46.992 241.342 47.168 240.782 47.168Z" fill="white"/>
<path d="M17.572 90.168C16.6013 90.168 15.7613 89.958 15.052 89.538C14.352 89.1087 13.8106 88.516 13.428 87.76C13.0453 86.9947 12.854 86.1127 12.854 85.114C12.854 84.106 13.0453 83.224 13.428 82.468C13.8106 81.7027 14.352 81.1053 15.052 80.676C15.7613 80.2467 16.6013 80.032 17.572 80.032C18.72 80.032 19.658 80.312 20.386 80.872C21.114 81.432 21.576 82.216 21.772 83.224H20.12C19.9893 82.6547 19.7093 82.202 19.28 81.866C18.8506 81.53 18.2766 81.362 17.558 81.362C16.578 81.362 15.8033 81.698 15.234 82.37C14.6646 83.0327 14.38 83.9473 14.38 85.114C14.38 86.2713 14.6646 87.1813 15.234 87.844C15.8033 88.5067 16.578 88.838 17.558 88.838C18.2766 88.838 18.8506 88.6793 19.28 88.362C19.7093 88.0447 19.9893 87.6107 20.12 87.06H21.772C21.576 88.0307 21.114 88.7913 20.386 89.342C19.658 89.8927 18.72 90.168 17.572 90.168ZM26.5952 90.168C25.9325 90.168 25.3352 90.0187 24.8032 89.72C24.2805 89.412 23.8652 88.9873 23.5572 88.446C23.2492 87.8953 23.0952 87.256 23.0952 86.528C23.0952 85.8 23.2492 85.1653 23.5572 84.624C23.8745 84.0733 24.2992 83.6487 24.8312 83.35C25.3632 83.042 25.9558 82.888 26.6092 82.888C27.2718 82.888 27.8645 83.042 28.3872 83.35C28.9192 83.6487 29.3392 84.0733 29.6472 84.624C29.9645 85.1653 30.1232 85.8 30.1232 86.528C30.1232 87.256 29.9645 87.8953 29.6472 88.446C29.3392 88.9873 28.9192 89.412 28.3872 89.72C27.8552 90.0187 27.2578 90.168 26.5952 90.168ZM26.5952 88.894C26.9498 88.894 27.2765 88.8053 27.5752 88.628C27.8832 88.4507 28.1305 88.1893 28.3172 87.844C28.5038 87.4893 28.5972 87.0507 28.5972 86.528C28.5972 86.0053 28.5038 85.5713 28.3172 85.226C28.1398 84.8713 27.8972 84.6053 27.5892 84.428C27.2905 84.2507 26.9638 84.162 26.6092 84.162C26.2545 84.162 25.9232 84.2507 25.6152 84.428C25.3165 84.6053 25.0738 84.8713 24.8872 85.226C24.7005 85.5713 24.6072 86.0053 24.6072 86.528C24.6072 87.0507 24.7005 87.4893 24.8872 87.844C25.0738 88.1893 25.3165 88.4507 25.6152 88.628C25.9138 88.8053 26.2405 88.894 26.5952 88.894ZM31.728 90V83.056H33.044L33.156 84.274C33.3707 83.8447 33.6834 83.5087 34.094 83.266C34.514 83.014 34.9947 82.888 35.536 82.888C36.376 82.888 37.034 83.1493 37.51 83.672C37.9954 84.1947 38.238 84.974 38.238 86.01V90H36.768V86.164C36.768 84.82 36.2174 84.148 35.116 84.148C34.5654 84.148 34.108 84.344 33.744 84.736C33.3894 85.128 33.212 85.688 33.212 86.416V90H31.728ZM40.3359 90V84.302H39.3419V83.056H40.3359V82.048C40.3359 81.292 40.5225 80.7507 40.8959 80.424C41.2785 80.088 41.8152 79.92 42.5059 79.92H43.2339V81.18H42.7299C42.4032 81.18 42.1699 81.25 42.0299 81.39C41.8899 81.5207 41.8199 81.7447 41.8199 82.062V83.056H46.2159V90H44.7319V84.302H41.8199V90H40.3359ZM45.4879 81.894C45.2079 81.894 44.9745 81.81 44.7879 81.642C44.6105 81.4647 44.5219 81.2407 44.5219 80.97C44.5219 80.7087 44.6105 80.494 44.7879 80.326C44.9745 80.158 45.2079 80.074 45.4879 80.074C45.7679 80.074 45.9965 80.158 46.1739 80.326C46.3605 80.494 46.4539 80.7087 46.4539 80.97C46.4539 81.2407 46.3605 81.4647 46.1739 81.642C45.9965 81.81 45.7679 81.894 45.4879 81.894ZM50.541 90.168C49.953 90.168 49.4676 90.07 49.085 89.874C48.7023 89.678 48.4176 89.4213 48.231 89.104C48.0443 88.7773 47.951 88.4227 47.951 88.04C47.951 87.368 48.2123 86.836 48.735 86.444C49.2576 86.052 50.0043 85.856 50.975 85.856H52.795V85.73C52.795 85.1887 52.6456 84.7827 52.347 84.512C52.0576 84.2413 51.6796 84.106 51.213 84.106C50.8023 84.106 50.443 84.2087 50.135 84.414C49.8363 84.61 49.6543 84.904 49.589 85.296H48.105C48.1516 84.792 48.3196 84.3627 48.609 84.008C48.9076 83.644 49.281 83.3687 49.729 83.182C50.1863 82.986 50.6856 82.888 51.227 82.888C52.1976 82.888 52.949 83.1447 53.481 83.658C54.013 84.162 54.279 84.8527 54.279 85.73V90H52.991L52.865 88.81C52.669 89.1927 52.3843 89.5147 52.011 89.776C51.6376 90.0373 51.1476 90.168 50.541 90.168ZM50.835 88.964C51.2363 88.964 51.5723 88.8707 51.843 88.684C52.123 88.488 52.3376 88.2313 52.487 87.914C52.6456 87.5967 52.7436 87.2467 52.781 86.864H51.129C50.541 86.864 50.121 86.9667 49.869 87.172C49.6263 87.3773 49.505 87.634 49.505 87.942C49.505 88.2593 49.6216 88.5113 49.855 88.698C50.0976 88.8753 50.4243 88.964 50.835 88.964ZM59.9153 90.168C59.374 90.168 58.8933 90.0607 58.4733 89.846C58.0626 89.6313 57.736 89.328 57.4933 88.936L57.3393 90H56.0093V79.92H57.4933V84.134C57.7173 83.8073 58.0253 83.518 58.4173 83.266C58.8093 83.014 59.3133 82.888 59.9293 82.888C60.6013 82.888 61.194 83.0467 61.7073 83.364C62.2206 83.6813 62.622 84.1153 62.9113 84.666C63.21 85.2167 63.3593 85.842 63.3593 86.542C63.3593 87.242 63.21 87.8673 62.9113 88.418C62.622 88.9593 62.2206 89.3887 61.7073 89.706C61.194 90.014 60.5966 90.168 59.9153 90.168ZM59.6633 88.88C60.298 88.88 60.8206 88.6653 61.2313 88.236C61.642 87.7973 61.8473 87.228 61.8473 86.528C61.8473 86.0707 61.754 85.6647 61.5673 85.31C61.3806 84.9553 61.124 84.68 60.7973 84.484C60.4706 84.2787 60.0926 84.176 59.6633 84.176C59.0286 84.176 58.506 84.3953 58.0953 84.834C57.694 85.2727 57.4933 85.8373 57.4933 86.528C57.4933 87.228 57.694 87.7973 58.0953 88.236C58.506 88.6653 59.0286 88.88 59.6633 88.88ZM64.9644 90V79.92H66.4484V90H64.9644ZM71.5756 90.168C70.8943 90.168 70.2876 90.0187 69.7556 89.72C69.233 89.412 68.8223 88.9873 68.5236 88.446C68.225 87.9047 68.0756 87.2747 68.0756 86.556C68.0756 85.828 68.2203 85.1887 68.5096 84.638C68.8083 84.0873 69.219 83.658 69.7416 83.35C70.2736 83.042 70.8896 82.888 71.5896 82.888C72.271 82.888 72.8636 83.042 73.3676 83.35C73.8716 83.6487 74.2636 84.05 74.5436 84.554C74.8236 85.058 74.9636 85.6133 74.9636 86.22C74.9636 86.3133 74.959 86.416 74.9496 86.528C74.9496 86.6307 74.945 86.7473 74.9356 86.878H69.5316C69.5783 87.55 69.7976 88.0633 70.1896 88.418C70.591 88.7633 71.053 88.936 71.5756 88.936C71.9956 88.936 72.3456 88.8427 72.6256 88.656C72.915 88.46 73.1296 88.1987 73.2696 87.872H74.7536C74.567 88.5253 74.1936 89.0713 73.6336 89.51C73.083 89.9487 72.397 90.168 71.5756 90.168ZM71.5756 84.106C71.081 84.106 70.6423 84.2553 70.2596 84.554C69.877 84.8433 69.6436 85.282 69.5596 85.87H73.4796C73.4516 85.3287 73.2603 84.8993 72.9056 84.582C72.551 84.2647 72.1076 84.106 71.5756 84.106ZM80.8428 93.08L82.5088 89.426H82.1028L79.3588 83.056H80.9688L83.0968 88.194L85.3228 83.056H86.8908L82.4108 93.08H80.8428ZM94.8022 90.168C94.1302 90.168 93.5375 90.0093 93.0242 89.692C92.5109 89.3747 92.1095 88.9407 91.8202 88.39C91.5309 87.8393 91.3862 87.214 91.3862 86.514C91.3862 85.814 91.5309 85.1933 91.8202 84.652C92.1095 84.1013 92.5109 83.672 93.0242 83.364C93.5469 83.0467 94.1442 82.888 94.8162 82.888C95.3669 82.888 95.8475 82.9953 96.2582 83.21C96.6782 83.4247 97.0049 83.728 97.2382 84.12V79.92H98.7222V90H97.3922L97.2382 88.922C97.0142 89.2487 96.7062 89.538 96.3142 89.79C95.9222 90.042 95.4182 90.168 94.8022 90.168ZM95.0682 88.88C95.7029 88.88 96.2209 88.6607 96.6222 88.222C97.0329 87.7833 97.2382 87.2187 97.2382 86.528C97.2382 85.828 97.0329 85.2633 96.6222 84.834C96.2209 84.3953 95.7029 84.176 95.0682 84.176C94.4335 84.176 93.9109 84.3953 93.5002 84.834C93.0895 85.2633 92.8842 85.828 92.8842 86.528C92.8842 86.9853 92.9775 87.3913 93.1642 87.746C93.3509 88.1007 93.6075 88.3807 93.9342 88.586C94.2702 88.782 94.6482 88.88 95.0682 88.88ZM101.433 81.74C101.153 81.74 100.92 81.656 100.733 81.488C100.556 81.3107 100.467 81.0913 100.467 80.83C100.467 80.5687 100.556 80.354 100.733 80.186C100.92 80.0087 101.153 79.92 101.433 79.92C101.713 79.92 101.942 80.0087 102.119 80.186C102.306 80.354 102.399 80.5687 102.399 80.83C102.399 81.0913 102.306 81.3107 102.119 81.488C101.942 81.656 101.713 81.74 101.433 81.74ZM100.691 90V83.056H102.175V90H100.691ZM106.906 90.168C106.029 90.168 105.306 89.9533 104.736 89.524C104.167 89.0947 103.84 88.5253 103.756 87.816H105.254C105.329 88.1333 105.506 88.4087 105.786 88.642C106.066 88.866 106.435 88.978 106.892 88.978C107.34 88.978 107.667 88.8847 107.872 88.698C108.078 88.5113 108.18 88.2967 108.18 88.054C108.18 87.6993 108.036 87.4613 107.746 87.34C107.466 87.2093 107.074 87.0927 106.57 86.99C106.178 86.906 105.786 86.794 105.394 86.654C105.012 86.514 104.69 86.318 104.428 86.066C104.176 85.8047 104.05 85.4547 104.05 85.016C104.05 84.4093 104.284 83.9053 104.75 83.504C105.217 83.0933 105.87 82.888 106.71 82.888C107.485 82.888 108.11 83.0747 108.586 83.448C109.072 83.8213 109.356 84.3487 109.44 85.03H108.012C107.966 84.7313 107.826 84.498 107.592 84.33C107.368 84.162 107.065 84.078 106.682 84.078C106.309 84.078 106.02 84.1573 105.814 84.316C105.609 84.4653 105.506 84.6613 105.506 84.904C105.506 85.1467 105.646 85.338 105.926 85.478C106.216 85.618 106.594 85.744 107.06 85.856C107.527 85.9587 107.956 86.08 108.348 86.22C108.75 86.3507 109.072 86.5467 109.314 86.808C109.557 87.0693 109.678 87.452 109.678 87.956C109.688 88.5907 109.44 89.118 108.936 89.538C108.442 89.958 107.765 90.168 106.906 90.168ZM114.546 90.168C113.865 90.168 113.258 90.0187 112.726 89.72C112.204 89.412 111.793 88.9873 111.494 88.446C111.196 87.9047 111.046 87.2747 111.046 86.556C111.046 85.828 111.191 85.1887 111.48 84.638C111.779 84.0873 112.19 83.658 112.712 83.35C113.244 83.042 113.86 82.888 114.56 82.888C115.242 82.888 115.834 83.042 116.338 83.35C116.842 83.6487 117.234 84.05 117.514 84.554C117.794 85.058 117.934 85.6133 117.934 86.22C117.934 86.3133 117.93 86.416 117.92 86.528C117.92 86.6307 117.916 86.7473 117.906 86.878H112.502C112.549 87.55 112.768 88.0633 113.16 88.418C113.562 88.7633 114.024 88.936 114.546 88.936C114.966 88.936 115.316 88.8427 115.596 88.656C115.886 88.46 116.1 88.1987 116.24 87.872H117.724C117.538 88.5253 117.164 89.0713 116.604 89.51C116.054 89.9487 115.368 90.168 114.546 90.168ZM114.546 84.106C114.052 84.106 113.613 84.2553 113.23 84.554C112.848 84.8433 112.614 85.282 112.53 85.87H116.45C116.422 85.3287 116.231 84.8993 115.876 84.582C115.522 84.2647 115.078 84.106 114.546 84.106ZM119.474 90V83.056H120.79L120.902 84.274C121.117 83.8447 121.429 83.5087 121.84 83.266C122.26 83.014 122.741 82.888 123.282 82.888C124.122 82.888 124.78 83.1493 125.256 83.672C125.741 84.1947 125.984 84.974 125.984 86.01V90H124.514V86.164C124.514 84.82 123.963 84.148 122.862 84.148C122.311 84.148 121.854 84.344 121.49 84.736C121.135 85.128 120.958 85.688 120.958 86.416V90H119.474ZM123.758 82.3C123.506 82.3 123.291 82.2487 123.114 82.146C122.937 82.034 122.769 81.9267 122.61 81.824C122.461 81.712 122.293 81.656 122.106 81.656C121.761 81.656 121.56 81.866 121.504 82.286H120.678C120.762 81.7447 120.93 81.348 121.182 81.096C121.443 80.8347 121.77 80.704 122.162 80.704C122.414 80.704 122.629 80.76 122.806 80.872C122.983 80.9747 123.147 81.082 123.296 81.194C123.455 81.2967 123.632 81.348 123.828 81.348C123.987 81.348 124.117 81.2967 124.22 81.194C124.332 81.0913 124.402 80.9327 124.43 80.718H125.256C125.181 81.25 125.009 81.6467 124.738 81.908C124.477 82.1693 124.15 82.3 123.758 82.3ZM130.084 90.168C129.496 90.168 129.011 90.07 128.628 89.874C128.245 89.678 127.961 89.4213 127.774 89.104C127.587 88.7773 127.494 88.4227 127.494 88.04C127.494 87.368 127.755 86.836 128.278 86.444C128.801 86.052 129.547 85.856 130.518 85.856H132.338V85.73C132.338 85.1887 132.189 84.7827 131.89 84.512C131.601 84.2413 131.223 84.106 130.756 84.106C130.345 84.106 129.986 84.2087 129.678 84.414C129.379 84.61 129.197 84.904 129.132 85.296H127.648C127.695 84.792 127.863 84.3627 128.152 84.008C128.451 83.644 128.824 83.3687 129.272 83.182C129.729 82.986 130.229 82.888 130.77 82.888C131.741 82.888 132.492 83.1447 133.024 83.658C133.556 84.162 133.822 84.8527 133.822 85.73V90H132.534L132.408 88.81C132.212 89.1927 131.927 89.5147 131.554 89.776C131.181 90.0373 130.691 90.168 130.084 90.168ZM130.378 88.964C130.779 88.964 131.115 88.8707 131.386 88.684C131.666 88.488 131.881 88.2313 132.03 87.914C132.189 87.5967 132.287 87.2467 132.324 86.864H130.672C130.084 86.864 129.664 86.9667 129.412 87.172C129.169 87.3773 129.048 87.634 129.048 87.942C129.048 88.2593 129.165 88.5113 129.398 88.698C129.641 88.8753 129.967 88.964 130.378 88.964ZM138.716 90.168C138.044 90.168 137.452 90.0093 136.938 89.692C136.425 89.3747 136.024 88.9407 135.734 88.39C135.445 87.8393 135.3 87.214 135.3 86.514C135.3 85.814 135.445 85.1933 135.734 84.652C136.024 84.1013 136.425 83.672 136.938 83.364C137.461 83.0467 138.058 82.888 138.73 82.888C139.281 82.888 139.762 82.9953 140.172 83.21C140.592 83.4247 140.919 83.728 141.152 84.12V79.92H142.636V90H141.306L141.152 88.922C140.928 89.2487 140.62 89.538 140.228 89.79C139.836 90.042 139.332 90.168 138.716 90.168ZM138.982 88.88C139.617 88.88 140.135 88.6607 140.536 88.222C140.947 87.7833 141.152 87.2187 141.152 86.528C141.152 85.828 140.947 85.2633 140.536 84.834C140.135 84.3953 139.617 84.176 138.982 84.176C138.348 84.176 137.825 84.3953 137.414 84.834C137.004 85.2633 136.798 85.828 136.798 86.528C136.798 86.9853 136.892 87.3913 137.078 87.746C137.265 88.1007 137.522 88.3807 137.848 88.586C138.184 88.782 138.562 88.88 138.982 88.88ZM147.755 90.168C147.093 90.168 146.495 90.0187 145.963 89.72C145.441 89.412 145.025 88.9873 144.717 88.446C144.409 87.8953 144.255 87.256 144.255 86.528C144.255 85.8 144.409 85.1653 144.717 84.624C145.035 84.0733 145.459 83.6487 145.991 83.35C146.523 83.042 147.116 82.888 147.769 82.888C148.432 82.888 149.025 83.042 149.547 83.35C150.079 83.6487 150.499 84.0733 150.807 84.624C151.125 85.1653 151.283 85.8 151.283 86.528C151.283 87.256 151.125 87.8953 150.807 88.446C150.499 88.9873 150.079 89.412 149.547 89.72C149.015 90.0187 148.418 90.168 147.755 90.168ZM147.755 88.894C148.11 88.894 148.437 88.8053 148.735 88.628C149.043 88.4507 149.291 88.1893 149.477 87.844C149.664 87.4893 149.757 87.0507 149.757 86.528C149.757 86.0053 149.664 85.5713 149.477 85.226C149.3 84.8713 149.057 84.6053 148.749 84.428C148.451 84.2507 148.124 84.162 147.769 84.162C147.415 84.162 147.083 84.2507 146.775 84.428C146.477 84.6053 146.234 84.8713 146.047 85.226C145.861 85.5713 145.767 86.0053 145.767 86.528C145.767 87.0507 145.861 87.4893 146.047 87.844C146.234 88.1893 146.477 88.4507 146.775 88.628C147.074 88.8053 147.401 88.894 147.755 88.894ZM156.416 93.08V83.056H157.746L157.9 84.134C158.124 83.8073 158.432 83.518 158.824 83.266C159.216 83.014 159.72 82.888 160.336 82.888C161.008 82.888 161.6 83.0467 162.114 83.364C162.627 83.6813 163.028 84.1153 163.318 84.666C163.616 85.2167 163.766 85.842 163.766 86.542C163.766 87.242 163.616 87.8673 163.318 88.418C163.028 88.9593 162.627 89.3887 162.114 89.706C161.6 90.014 161.003 90.168 160.322 90.168C159.78 90.168 159.3 90.0607 158.88 89.846C158.469 89.6313 158.142 89.328 157.9 88.936V93.08H156.416ZM160.07 88.88C160.704 88.88 161.227 88.6653 161.638 88.236C162.048 87.7973 162.254 87.228 162.254 86.528C162.254 86.0707 162.16 85.6647 161.974 85.31C161.787 84.9553 161.53 84.68 161.204 84.484C160.877 84.2787 160.499 84.176 160.07 84.176C159.435 84.176 158.912 84.3953 158.502 84.834C158.1 85.2727 157.9 85.8373 157.9 86.528C157.9 87.228 158.1 87.7973 158.502 88.236C158.912 88.6653 159.435 88.88 160.07 88.88ZM167.723 90.168C167.135 90.168 166.649 90.07 166.267 89.874C165.884 89.678 165.599 89.4213 165.413 89.104C165.226 88.7773 165.133 88.4227 165.133 88.04C165.133 87.368 165.394 86.836 165.917 86.444C166.439 86.052 167.186 85.856 168.157 85.856H169.977V85.73C169.977 85.1887 169.827 84.7827 169.529 84.512C169.239 84.2413 168.861 84.106 168.395 84.106C167.984 84.106 167.625 84.2087 167.317 84.414C167.018 84.61 166.836 84.904 166.771 85.296H165.287C165.333 84.792 165.501 84.3627 165.791 84.008C166.089 83.644 166.463 83.3687 166.911 83.182C167.368 82.986 167.867 82.888 168.409 82.888C169.379 82.888 170.131 83.1447 170.663 83.658C171.195 84.162 171.461 84.8527 171.461 85.73V90H170.173L170.047 88.81C169.851 89.1927 169.566 89.5147 169.193 89.776C168.819 90.0373 168.329 90.168 167.723 90.168ZM168.017 88.964C168.418 88.964 168.754 88.8707 169.025 88.684C169.305 88.488 169.519 88.2313 169.669 87.914C169.827 87.5967 169.925 87.2467 169.963 86.864H168.311C167.723 86.864 167.303 86.9667 167.051 87.172C166.808 87.3773 166.687 87.634 166.687 87.942C166.687 88.2593 166.803 88.5113 167.037 88.698C167.279 88.8753 167.606 88.964 168.017 88.964ZM173.191 90V83.056H174.521L174.647 84.372C174.89 83.9147 175.226 83.5553 175.655 83.294C176.094 83.0233 176.621 82.888 177.237 82.888V84.442H176.831C176.42 84.442 176.052 84.512 175.725 84.652C175.408 84.7827 175.151 85.0113 174.955 85.338C174.768 85.6553 174.675 86.0987 174.675 86.668V90H173.191ZM180.861 90.168C180.273 90.168 179.788 90.07 179.405 89.874C179.023 89.678 178.738 89.4213 178.551 89.104C178.365 88.7773 178.271 88.4227 178.271 88.04C178.271 87.368 178.533 86.836 179.055 86.444C179.578 86.052 180.325 85.856 181.295 85.856H183.115V85.73C183.115 85.1887 182.966 84.7827 182.667 84.512C182.378 84.2413 182 84.106 181.533 84.106C181.123 84.106 180.763 84.2087 180.455 84.414C180.157 84.61 179.975 84.904 179.909 85.296H178.425C178.472 84.792 178.64 84.3627 178.929 84.008C179.228 83.644 179.601 83.3687 180.049 83.182C180.507 82.986 181.006 82.888 181.547 82.888C182.518 82.888 183.269 83.1447 183.801 83.658C184.333 84.162 184.599 84.8527 184.599 85.73V90H183.311L183.185 88.81C182.989 89.1927 182.705 89.5147 182.331 89.776C181.958 90.0373 181.468 90.168 180.861 90.168ZM181.155 88.964C181.557 88.964 181.893 88.8707 182.163 88.684C182.443 88.488 182.658 88.2313 182.807 87.914C182.966 87.5967 183.064 87.2467 183.101 86.864H181.449C180.861 86.864 180.441 86.9667 180.189 87.172C179.947 87.3773 179.825 87.634 179.825 87.942C179.825 88.2593 179.942 88.5113 180.175 88.698C180.418 88.8753 180.745 88.964 181.155 88.964ZM192.629 90.168C191.752 90.168 191.028 89.9533 190.459 89.524C189.89 89.0947 189.563 88.5253 189.479 87.816H190.977C191.052 88.1333 191.229 88.4087 191.509 88.642C191.789 88.866 192.158 88.978 192.615 88.978C193.063 88.978 193.39 88.8847 193.595 88.698C193.8 88.5113 193.903 88.2967 193.903 88.054C193.903 87.6993 193.758 87.4613 193.469 87.34C193.189 87.2093 192.797 87.0927 192.293 86.99C191.901 86.906 191.509 86.794 191.117 86.654C190.734 86.514 190.412 86.318 190.151 86.066C189.899 85.8047 189.773 85.4547 189.773 85.016C189.773 84.4093 190.006 83.9053 190.473 83.504C190.94 83.0933 191.593 82.888 192.433 82.888C193.208 82.888 193.833 83.0747 194.309 83.448C194.794 83.8213 195.079 84.3487 195.163 85.03H193.735C193.688 84.7313 193.548 84.498 193.315 84.33C193.091 84.162 192.788 84.078 192.405 84.078C192.032 84.078 191.742 84.1573 191.537 84.316C191.332 84.4653 191.229 84.6613 191.229 84.904C191.229 85.1467 191.369 85.338 191.649 85.478C191.938 85.618 192.316 85.744 192.783 85.856C193.25 85.9587 193.679 86.08 194.071 86.22C194.472 86.3507 194.794 86.5467 195.037 86.808C195.28 87.0693 195.401 87.452 195.401 87.956C195.41 88.5907 195.163 89.118 194.659 89.538C194.164 89.958 193.488 90.168 192.629 90.168ZM203.405 83.056V90H202.089L201.977 88.782C201.762 89.2113 201.445 89.552 201.025 89.804C200.614 90.0467 200.138 90.168 199.597 90.168C198.757 90.168 198.094 89.9067 197.609 89.384C197.133 88.8613 196.895 88.082 196.895 87.046V83.056H198.365V86.892C198.365 88.236 198.916 88.908 200.017 88.908C200.568 88.908 201.02 88.712 201.375 88.32C201.739 87.928 201.921 87.368 201.921 86.64V83.056H203.405ZM215.19 83.056V90H213.874L213.762 88.782C213.547 89.2113 213.23 89.552 212.81 89.804C212.399 90.0467 211.923 90.168 211.382 90.168C210.542 90.168 209.879 89.9067 209.394 89.384C208.918 88.8613 208.68 88.082 208.68 87.046V83.056H210.15V86.892C210.15 88.236 210.701 88.908 211.802 88.908C212.353 88.908 212.805 88.712 213.16 88.32C213.524 87.928 213.706 87.368 213.706 86.64V83.056H215.19ZM219.836 90.168C218.959 90.168 218.235 89.9533 217.666 89.524C217.097 89.0947 216.77 88.5253 216.686 87.816H218.184C218.259 88.1333 218.436 88.4087 218.716 88.642C218.996 88.866 219.365 88.978 219.822 88.978C220.27 88.978 220.597 88.8847 220.802 88.698C221.007 88.5113 221.11 88.2967 221.11 88.054C221.11 87.6993 220.965 87.4613 220.676 87.34C220.396 87.2093 220.004 87.0927 219.5 86.99C219.108 86.906 218.716 86.794 218.324 86.654C217.941 86.514 217.619 86.318 217.358 86.066C217.106 85.8047 216.98 85.4547 216.98 85.016C216.98 84.4093 217.213 83.9053 217.68 83.504C218.147 83.0933 218.8 82.888 219.64 82.888C220.415 82.888 221.04 83.0747 221.516 83.448C222.001 83.8213 222.286 84.3487 222.37 85.03H220.942C220.895 84.7313 220.755 84.498 220.522 84.33C220.298 84.162 219.995 84.078 219.612 84.078C219.239 84.078 218.949 84.1573 218.744 84.316C218.539 84.4653 218.436 84.6613 218.436 84.904C218.436 85.1467 218.576 85.338 218.856 85.478C219.145 85.618 219.523 85.744 219.99 85.856C220.457 85.9587 220.886 86.08 221.278 86.22C221.679 86.3507 222.001 86.5467 222.244 86.808C222.487 87.0693 222.608 87.452 222.608 87.956C222.617 88.5907 222.37 89.118 221.866 89.538C221.371 89.958 220.695 90.168 219.836 90.168ZM227.476 90.168C226.813 90.168 226.216 90.0187 225.684 89.72C225.161 89.412 224.746 88.9873 224.438 88.446C224.13 87.8953 223.976 87.256 223.976 86.528C223.976 85.8 224.13 85.1653 224.438 84.624C224.755 84.0733 225.18 83.6487 225.712 83.35C226.244 83.042 226.837 82.888 227.49 82.888C228.153 82.888 228.745 83.042 229.268 83.35C229.8 83.6487 230.22 84.0733 230.528 84.624C230.845 85.1653 231.004 85.8 231.004 86.528C231.004 87.256 230.845 87.8953 230.528 88.446C230.22 88.9873 229.8 89.412 229.268 89.72C228.736 90.0187 228.139 90.168 227.476 90.168ZM227.476 88.894C227.831 88.894 228.157 88.8053 228.456 88.628C228.764 88.4507 229.011 88.1893 229.198 87.844C229.385 87.4893 229.478 87.0507 229.478 86.528C229.478 86.0053 229.385 85.5713 229.198 85.226C229.021 84.8713 228.778 84.6053 228.47 84.428C228.171 84.2507 227.845 84.162 227.49 84.162C227.135 84.162 226.804 84.2507 226.496 84.428C226.197 84.6053 225.955 84.8713 225.768 85.226C225.581 85.5713 225.488 86.0053 225.488 86.528C225.488 87.0507 225.581 87.4893 225.768 87.844C225.955 88.1893 226.197 88.4507 226.496 88.628C226.795 88.8053 227.121 88.894 227.476 88.894ZM239.3 90.168C238.628 90.168 238.036 90.0093 237.522 89.692C237.009 89.3747 236.608 88.9407 236.318 88.39C236.029 87.8393 235.884 87.214 235.884 86.514C235.884 85.814 236.029 85.1933 236.318 84.652C236.608 84.1013 237.009 83.672 237.522 83.364C238.045 83.0467 238.642 82.888 239.314 82.888C239.865 82.888 240.346 82.9953 240.756 83.21C241.176 83.4247 241.503 83.728 241.736 84.12V79.92H243.22V90H241.89L241.736 88.922C241.512 89.2487 241.204 89.538 240.812 89.79C240.42 90.042 239.916 90.168 239.3 90.168ZM239.566 88.88C240.201 88.88 240.719 88.6607 241.12 88.222C241.531 87.7833 241.736 87.2187 241.736 86.528C241.736 85.828 241.531 85.2633 241.12 84.834C240.719 84.3953 240.201 84.176 239.566 84.176C238.932 84.176 238.409 84.3953 237.998 84.834C237.588 85.2633 237.382 85.828 237.382 86.528C237.382 86.9853 237.476 87.3913 237.662 87.746C237.849 88.1007 238.106 88.3807 238.432 88.586C238.768 88.782 239.146 88.88 239.566 88.88ZM245.931 81.74C245.651 81.74 245.418 81.656 245.231 81.488C245.054 81.3107 244.965 81.0913 244.965 80.83C244.965 80.5687 245.054 80.354 245.231 80.186C245.418 80.0087 245.651 79.92 245.931 79.92C246.211 79.92 246.44 80.0087 246.617 80.186C246.804 80.354 246.897 80.5687 246.897 80.83C246.897 81.0913 246.804 81.3107 246.617 81.488C246.44 81.656 246.211 81.74 245.931 81.74ZM245.189 90V83.056H246.673V90H245.189ZM250.984 90.168C250.396 90.168 249.911 90.07 249.528 89.874C249.146 89.678 248.861 89.4213 248.674 89.104C248.488 88.7773 248.394 88.4227 248.394 88.04C248.394 87.368 248.656 86.836 249.178 86.444C249.701 86.052 250.448 85.856 251.418 85.856H253.238V85.73C253.238 85.1887 253.089 84.7827 252.79 84.512C252.501 84.2413 252.123 84.106 251.656 84.106C251.246 84.106 250.886 84.2087 250.578 84.414C250.28 84.61 250.098 84.904 250.032 85.296H248.548C248.595 84.792 248.763 84.3627 249.052 84.008C249.351 83.644 249.724 83.3687 250.172 83.182C250.63 82.986 251.129 82.888 251.67 82.888C252.641 82.888 253.392 83.1447 253.924 83.658C254.456 84.162 254.722 84.8527 254.722 85.73V90H253.434L253.308 88.81C253.112 89.1927 252.828 89.5147 252.454 89.776C252.081 90.0373 251.591 90.168 250.984 90.168ZM251.278 88.964C251.68 88.964 252.016 88.8707 252.286 88.684C252.566 88.488 252.781 88.2313 252.93 87.914C253.089 87.5967 253.187 87.2467 253.224 86.864H251.572C250.984 86.864 250.564 86.9667 250.312 87.172C250.07 87.3773 249.948 87.634 249.948 87.942C249.948 88.2593 250.065 88.5113 250.298 88.698C250.541 88.8753 250.868 88.964 251.278 88.964ZM256.453 90V83.056H257.783L257.909 84.372C258.151 83.9147 258.487 83.5553 258.917 83.294C259.355 83.0233 259.883 82.888 260.499 82.888V84.442H260.093C259.682 84.442 259.313 84.512 258.987 84.652C258.669 84.7827 258.413 85.0113 258.217 85.338C258.03 85.6553 257.937 86.0987 257.937 86.668V90H256.453ZM262.611 81.74C262.331 81.74 262.098 81.656 261.911 81.488C261.734 81.3107 261.645 81.0913 261.645 80.83C261.645 80.5687 261.734 80.354 261.911 80.186C262.098 80.0087 262.331 79.92 262.611 79.92C262.891 79.92 263.12 80.0087 263.297 80.186C263.484 80.354 263.577 80.5687 263.577 80.83C263.577 81.0913 263.484 81.3107 263.297 81.488C263.12 81.656 262.891 81.74 262.611 81.74ZM261.869 90V83.056H263.353V90H261.869ZM268.56 90.168C267.897 90.168 267.3 90.0187 266.768 89.72C266.245 89.412 265.83 88.9873 265.522 88.446C265.214 87.8953 265.06 87.256 265.06 86.528C265.06 85.8 265.214 85.1653 265.522 84.624C265.839 84.0733 266.264 83.6487 266.796 83.35C267.328 83.042 267.921 82.888 268.574 82.888C269.237 82.888 269.829 83.042 270.352 83.35C270.884 83.6487 271.304 84.0733 271.612 84.624C271.929 85.1653 272.088 85.8 272.088 86.528C272.088 87.256 271.929 87.8953 271.612 88.446C271.304 88.9873 270.884 89.412 270.352 89.72C269.82 90.0187 269.223 90.168 268.56 90.168ZM268.56 88.894C268.915 88.894 269.241 88.8053 269.54 88.628C269.848 88.4507 270.095 88.1893 270.282 87.844C270.469 87.4893 270.562 87.0507 270.562 86.528C270.562 86.0053 270.469 85.5713 270.282 85.226C270.105 84.8713 269.862 84.6053 269.554 84.428C269.255 84.2507 268.929 84.162 268.574 84.162C268.219 84.162 267.888 84.2507 267.58 84.428C267.281 84.6053 267.039 84.8713 266.852 85.226C266.665 85.5713 266.572 86.0053 266.572 86.528C266.572 87.0507 266.665 87.4893 266.852 87.844C267.039 88.1893 267.281 88.4507 267.58 88.628C267.879 88.8053 268.205 88.894 268.56 88.894ZM274.281 90.084C274.001 90.084 273.768 89.9953 273.581 89.818C273.404 89.6313 273.315 89.412 273.315 89.16C273.315 88.8987 273.404 88.6793 273.581 88.502C273.768 88.3153 274.001 88.222 274.281 88.222C274.561 88.222 274.79 88.3153 274.967 88.502C275.144 88.6793 275.233 88.8987 275.233 89.16C275.233 89.412 275.144 89.6313 274.967 89.818C274.79 89.9953 274.561 90.084 274.281 90.084Z" fill="#808080"/>
</svg>
