<svg width="288" height="130" viewBox="0 0 288 130" fill="none" xmlns="http://www.w3.org/2000/svg">
<path d="M19.3009 21L13.1569 4.2H16.4449L21.1969 17.856L25.9729 4.2H29.2129L23.0689 21H19.3009ZM32.7941 7.248C32.2341 7.248 31.7701 7.08 31.4021 6.744C31.0501 6.408 30.8741 5.984 30.8741 5.472C30.8741 4.96 31.0501 4.544 31.4021 4.224C31.7701 3.888 32.2341 3.72 32.7941 3.72C33.3541 3.72 33.8101 3.888 34.1621 4.224C34.5301 4.544 34.7141 4.96 34.7141 5.472C34.7141 5.984 34.5301 6.408 34.1621 6.744C33.8101 7.08 33.3541 7.248 32.7941 7.248ZM31.2581 21V9.096H34.3301V21H31.2581ZM42.4566 21.288C41.4006 21.288 40.4726 21.12 39.6726 20.784C38.8726 20.432 38.2326 19.952 37.7526 19.344C37.2726 18.736 36.9846 18.032 36.8886 17.232H39.9846C40.0806 17.696 40.3366 18.096 40.7526 18.432C41.1846 18.752 41.7366 18.912 42.4086 18.912C43.0806 18.912 43.5686 18.776 43.8726 18.504C44.1926 18.232 44.3526 17.92 44.3526 17.568C44.3526 17.056 44.1286 16.712 43.6806 16.536C43.2326 16.344 42.6086 16.16 41.8086 15.984C41.2966 15.872 40.7766 15.736 40.2486 15.576C39.7206 15.416 39.2326 15.216 38.7846 14.976C38.3526 14.72 38.0006 14.4 37.7286 14.016C37.4566 13.616 37.3206 13.128 37.3206 12.552C37.3206 11.496 37.7366 10.608 38.5686 9.888C39.4166 9.168 40.6006 8.808 42.1206 8.808C43.5286 8.808 44.6486 9.136 45.4806 9.792C46.3286 10.448 46.8326 11.352 46.9926 12.504H44.0886C43.9126 11.624 43.2486 11.184 42.0966 11.184C41.5206 11.184 41.0726 11.296 40.7526 11.52C40.4486 11.744 40.2966 12.024 40.2966 12.36C40.2966 12.712 40.5286 12.992 40.9926 13.2C41.4566 13.408 42.0726 13.6 42.8406 13.776C43.6726 13.968 44.4326 14.184 45.1206 14.424C45.8246 14.648 46.3846 14.992 46.8006 15.456C47.2166 15.904 47.4246 16.552 47.4246 17.4C47.4406 18.136 47.2486 18.8 46.8486 19.392C46.4486 19.984 45.8726 20.448 45.1206 20.784C44.3686 21.12 43.4806 21.288 42.4566 21.288ZM51.8019 7.248C51.2419 7.248 50.7779 7.08 50.4099 6.744C50.0579 6.408 49.8819 5.984 49.8819 5.472C49.8819 4.96 50.0579 4.544 50.4099 4.224C50.7779 3.888 51.2419 3.72 51.8019 3.72C52.3619 3.72 52.8179 3.888 53.1699 4.224C53.5379 4.544 53.7219 4.96 53.7219 5.472C53.7219 5.984 53.5379 6.408 53.1699 6.744C52.8179 7.08 52.3619 7.248 51.8019 7.248ZM50.2659 21V9.096H53.3379V21H50.2659ZM63.6004 21.288C62.7044 21.288 61.9204 21.12 61.2484 20.784C60.5764 20.448 60.0324 19.976 59.6164 19.368L59.2804 21H56.5444V3.72H59.6164V10.8C60.0004 10.272 60.5044 9.808 61.1284 9.408C61.7684 9.008 62.5924 8.808 63.6004 8.808C64.7204 8.808 65.7204 9.08 66.6004 9.624C67.4804 10.168 68.1764 10.912 68.6884 11.856C69.2004 12.8 69.4564 13.872 69.4564 15.072C69.4564 16.272 69.2004 17.344 68.6884 18.288C68.1764 19.216 67.4804 19.952 66.6004 20.496C65.7204 21.024 64.7204 21.288 63.6004 21.288ZM62.9524 18.6C63.9284 18.6 64.7364 18.272 65.3764 17.616C66.0164 16.96 66.3364 16.112 66.3364 15.072C66.3364 14.032 66.0164 13.176 65.3764 12.504C64.7364 11.832 63.9284 11.496 62.9524 11.496C61.9604 11.496 61.1444 11.832 60.5044 12.504C59.8804 13.16 59.5684 14.008 59.5684 15.048C59.5684 16.088 59.8804 16.944 60.5044 17.616C61.1444 18.272 61.9604 18.6 62.9524 18.6ZM73.8566 7.248C73.2966 7.248 72.8326 7.08 72.4646 6.744C72.1126 6.408 71.9366 5.984 71.9366 5.472C71.9366 4.96 72.1126 4.544 72.4646 4.224C72.8326 3.888 73.2966 3.72 73.8566 3.72C74.4166 3.72 74.8726 3.888 75.2246 4.224C75.5926 4.544 75.7766 4.96 75.7766 5.472C75.7766 5.984 75.5926 6.408 75.2246 6.744C74.8726 7.08 74.4166 7.248 73.8566 7.248ZM72.3206 21V9.096H75.3926V21H72.3206ZM78.5991 21V3.72H81.6711V21H78.5991ZM86.466 7.248C85.906 7.248 85.442 7.08 85.074 6.744C84.722 6.408 84.546 5.984 84.546 5.472C84.546 4.96 84.722 4.544 85.074 4.224C85.442 3.888 85.906 3.72 86.466 3.72C87.026 3.72 87.482 3.888 87.834 4.224C88.202 4.544 88.386 4.96 88.386 5.472C88.386 5.984 88.202 6.408 87.834 6.744C87.482 7.08 87.026 7.248 86.466 7.248ZM84.93 21V9.096H88.002V21H84.93ZM90.4404 21V18.528L96.5124 11.64H90.5124V9.096H100.016V11.568L93.8484 18.456H100.136V21H90.4404ZM106.797 21.288C105.773 21.288 104.933 21.128 104.277 20.808C103.621 20.472 103.133 20.032 102.813 19.488C102.493 18.944 102.333 18.344 102.333 17.688C102.333 16.584 102.765 15.688 103.629 15C104.493 14.312 105.789 13.968 107.517 13.968H110.541V13.68C110.541 12.864 110.309 12.264 109.845 11.88C109.381 11.496 108.805 11.304 108.117 11.304C107.493 11.304 106.949 11.456 106.485 11.76C106.021 12.048 105.733 12.48 105.621 13.056H102.621C102.701 12.192 102.989 11.44 103.485 10.8C103.997 10.16 104.653 9.672 105.453 9.336C106.253 8.984 107.149 8.808 108.141 8.808C109.837 8.808 111.173 9.232 112.149 10.08C113.125 10.928 113.613 12.128 113.613 13.68V21H110.997L110.709 19.08C110.357 19.72 109.861 20.248 109.221 20.664C108.597 21.08 107.789 21.288 106.797 21.288ZM107.493 18.888C108.373 18.888 109.053 18.6 109.533 18.024C110.029 17.448 110.341 16.736 110.469 15.888H107.853C107.037 15.888 106.453 16.04 106.101 16.344C105.749 16.632 105.573 16.992 105.573 17.424C105.573 17.888 105.749 18.248 106.101 18.504C106.453 18.76 106.917 18.888 107.493 18.888ZM116.544 21V9.096H119.256L119.52 10.704C119.904 10.128 120.408 9.672 121.032 9.336C121.672 8.984 122.408 8.808 123.24 8.808C125.08 8.808 126.384 9.52 127.152 10.944C127.584 10.288 128.16 9.768 128.88 9.384C129.616 9 130.416 8.808 131.28 8.808C132.832 8.808 134.024 9.272 134.856 10.2C135.688 11.128 136.104 12.488 136.104 14.28V21H133.032V14.568C133.032 13.544 132.832 12.76 132.432 12.216C132.048 11.672 131.448 11.4 130.632 11.4C129.8 11.4 129.128 11.704 128.616 12.312C128.12 12.92 127.872 13.768 127.872 14.856V21H124.8V14.568C124.8 13.544 124.6 12.76 124.2 12.216C123.8 11.672 123.184 11.4 122.352 11.4C121.536 11.4 120.872 11.704 120.36 12.312C119.864 12.92 119.616 13.768 119.616 14.856V21H116.544ZM144.733 21.288C143.581 21.288 142.541 21.024 141.613 20.496C140.701 19.968 139.973 19.24 139.429 18.312C138.901 17.368 138.637 16.28 138.637 15.048C138.637 13.816 138.909 12.736 139.453 11.808C139.997 10.864 140.725 10.128 141.637 9.6C142.565 9.072 143.605 8.808 144.757 8.808C145.893 8.808 146.917 9.072 147.829 9.6C148.757 10.128 149.485 10.864 150.013 11.808C150.557 12.736 150.829 13.816 150.829 15.048C150.829 16.28 150.557 17.368 150.013 18.312C149.485 19.24 148.757 19.968 147.829 20.496C146.901 21.024 145.869 21.288 144.733 21.288ZM144.733 18.624C145.533 18.624 146.229 18.328 146.821 17.736C147.413 17.128 147.709 16.232 147.709 15.048C147.709 13.864 147.413 12.976 146.821 12.384C146.229 11.776 145.541 11.472 144.757 11.472C143.941 11.472 143.237 11.776 142.645 12.384C142.069 12.976 141.781 13.864 141.781 15.048C141.781 16.232 142.069 17.128 142.645 17.736C143.237 18.328 143.933 18.624 144.733 18.624ZM158.496 21.288C157.44 21.288 156.512 21.12 155.712 20.784C154.912 20.432 154.272 19.952 153.792 19.344C153.312 18.736 153.024 18.032 152.928 17.232H156.024C156.12 17.696 156.376 18.096 156.792 18.432C157.224 18.752 157.776 18.912 158.448 18.912C159.12 18.912 159.608 18.776 159.912 18.504C160.232 18.232 160.392 17.92 160.392 17.568C160.392 17.056 160.168 16.712 159.72 16.536C159.272 16.344 158.648 16.16 157.848 15.984C157.336 15.872 156.816 15.736 156.288 15.576C155.76 15.416 155.272 15.216 154.824 14.976C154.392 14.72 154.04 14.4 153.768 14.016C153.496 13.616 153.36 13.128 153.36 12.552C153.36 11.496 153.776 10.608 154.608 9.888C155.456 9.168 156.64 8.808 158.16 8.808C159.568 8.808 160.688 9.136 161.52 9.792C162.368 10.448 162.872 11.352 163.032 12.504H160.128C159.952 11.624 159.288 11.184 158.136 11.184C157.56 11.184 157.112 11.296 156.792 11.52C156.488 11.744 156.336 12.024 156.336 12.36C156.336 12.712 156.568 12.992 157.032 13.2C157.496 13.408 158.112 13.6 158.88 13.776C159.712 13.968 160.472 14.184 161.16 14.424C161.864 14.648 162.424 14.992 162.84 15.456C163.256 15.904 163.464 16.552 163.464 17.4C163.48 18.136 163.288 18.8 162.888 19.392C162.488 19.984 161.912 20.448 161.16 20.784C160.408 21.12 159.52 21.288 158.496 21.288ZM177.208 21C175.96 21 174.96 20.696 174.208 20.088C173.456 19.48 173.08 18.4 173.08 16.848V11.664H171.04V9.096H173.08L173.44 5.904H176.152V9.096H179.368V11.664H176.152V16.872C176.152 17.448 176.272 17.848 176.512 18.072C176.768 18.28 177.2 18.384 177.808 18.384H179.296V21H177.208ZM187.413 21.288C186.261 21.288 185.221 21.024 184.293 20.496C183.381 19.968 182.653 19.24 182.109 18.312C181.581 17.368 181.317 16.28 181.317 15.048C181.317 13.816 181.589 12.736 182.133 11.808C182.677 10.864 183.405 10.128 184.317 9.6C185.245 9.072 186.285 8.808 187.437 8.808C188.573 8.808 189.597 9.072 190.509 9.6C191.437 10.128 192.165 10.864 192.693 11.808C193.237 12.736 193.509 13.816 193.509 15.048C193.509 16.28 193.237 17.368 192.693 18.312C192.165 19.24 191.437 19.968 190.509 20.496C189.581 21.024 188.549 21.288 187.413 21.288ZM187.413 18.624C188.213 18.624 188.909 18.328 189.501 17.736C190.093 17.128 190.389 16.232 190.389 15.048C190.389 13.864 190.093 12.976 189.501 12.384C188.909 11.776 188.221 11.472 187.437 11.472C186.621 11.472 185.917 11.776 185.325 12.384C184.749 12.976 184.461 13.864 184.461 15.048C184.461 16.232 184.749 17.128 185.325 17.736C185.917 18.328 186.613 18.624 187.413 18.624ZM201.727 21.288C200.607 21.288 199.607 21.016 198.727 20.472C197.847 19.928 197.151 19.184 196.639 18.24C196.127 17.296 195.871 16.224 195.871 15.024C195.871 13.824 196.127 12.76 196.639 11.832C197.151 10.888 197.847 10.152 198.727 9.624C199.607 9.08 200.607 8.808 201.727 8.808C202.623 8.808 203.407 8.976 204.079 9.312C204.751 9.648 205.295 10.12 205.711 10.728V3.72H208.783V21H206.047L205.711 19.296C205.327 19.824 204.815 20.288 204.175 20.688C203.551 21.088 202.735 21.288 201.727 21.288ZM202.375 18.6C203.367 18.6 204.175 18.272 204.799 17.616C205.439 16.944 205.759 16.088 205.759 15.048C205.759 14.008 205.439 13.16 204.799 12.504C204.175 11.832 203.367 11.496 202.375 11.496C201.399 11.496 200.591 11.824 199.951 12.48C199.311 13.136 198.991 13.984 198.991 15.024C198.991 16.064 199.311 16.92 199.951 17.592C200.591 18.264 201.399 18.6 202.375 18.6ZM216.016 21.288C214.992 21.288 214.152 21.128 213.496 20.808C212.84 20.472 212.352 20.032 212.032 19.488C211.712 18.944 211.552 18.344 211.552 17.688C211.552 16.584 211.984 15.688 212.848 15C213.712 14.312 215.008 13.968 216.736 13.968H219.76V13.68C219.76 12.864 219.528 12.264 219.064 11.88C218.6 11.496 218.024 11.304 217.336 11.304C216.712 11.304 216.168 11.456 215.704 11.76C215.24 12.048 214.952 12.48 214.84 13.056H211.84C211.92 12.192 212.208 11.44 212.704 10.8C213.216 10.16 213.872 9.672 214.672 9.336C215.472 8.984 216.368 8.808 217.36 8.808C219.056 8.808 220.392 9.232 221.368 10.08C222.344 10.928 222.832 12.128 222.832 13.68V21H220.216L219.928 19.08C219.576 19.72 219.08 20.248 218.44 20.664C217.816 21.08 217.008 21.288 216.016 21.288ZM216.712 18.888C217.592 18.888 218.272 18.6 218.752 18.024C219.248 17.448 219.56 16.736 219.688 15.888H217.072C216.256 15.888 215.672 16.04 215.32 16.344C214.968 16.632 214.792 16.992 214.792 17.424C214.792 17.888 214.968 18.248 215.32 18.504C215.672 18.76 216.136 18.888 216.712 18.888ZM230.683 21.288C229.627 21.288 228.699 21.12 227.899 20.784C227.099 20.432 226.459 19.952 225.979 19.344C225.499 18.736 225.211 18.032 225.115 17.232H228.211C228.307 17.696 228.563 18.096 228.979 18.432C229.411 18.752 229.963 18.912 230.635 18.912C231.307 18.912 231.795 18.776 232.099 18.504C232.419 18.232 232.579 17.92 232.579 17.568C232.579 17.056 232.355 16.712 231.907 16.536C231.459 16.344 230.835 16.16 230.035 15.984C229.523 15.872 229.003 15.736 228.475 15.576C227.947 15.416 227.459 15.216 227.011 14.976C226.579 14.72 226.227 14.4 225.955 14.016C225.683 13.616 225.547 13.128 225.547 12.552C225.547 11.496 225.963 10.608 226.795 9.888C227.643 9.168 228.827 8.808 230.347 8.808C231.755 8.808 232.875 9.136 233.707 9.792C234.555 10.448 235.059 11.352 235.219 12.504H232.315C232.139 11.624 231.475 11.184 230.323 11.184C229.747 11.184 229.299 11.296 228.979 11.52C228.675 11.744 228.523 12.024 228.523 12.36C228.523 12.712 228.755 12.992 229.219 13.2C229.683 13.408 230.299 13.6 231.067 13.776C231.899 13.968 232.659 14.184 233.347 14.424C234.051 14.648 234.611 14.992 235.027 15.456C235.443 15.904 235.651 16.552 235.651 17.4C235.667 18.136 235.475 18.8 235.075 19.392C234.675 19.984 234.099 20.448 233.347 20.784C232.595 21.12 231.707 21.288 230.683 21.288ZM244.091 21V3.72H247.163V21H244.091ZM254.406 21.288C253.382 21.288 252.542 21.128 251.886 20.808C251.23 20.472 250.742 20.032 250.422 19.488C250.102 18.944 249.942 18.344 249.942 17.688C249.942 16.584 250.374 15.688 251.238 15C252.102 14.312 253.398 13.968 255.126 13.968H258.15V13.68C258.15 12.864 257.918 12.264 257.454 11.88C256.99 11.496 256.414 11.304 255.726 11.304C255.102 11.304 254.558 11.456 254.094 11.76C253.63 12.048 253.342 12.48 253.23 13.056H250.23C250.31 12.192 250.598 11.44 251.094 10.8C251.606 10.16 252.262 9.672 253.062 9.336C253.862 8.984 254.758 8.808 255.75 8.808C257.446 8.808 258.782 9.232 259.758 10.08C260.734 10.928 261.222 12.128 261.222 13.68V21H258.606L258.318 19.08C257.966 19.72 257.47 20.248 256.83 20.664C256.206 21.08 255.398 21.288 254.406 21.288ZM255.102 18.888C255.982 18.888 256.662 18.6 257.142 18.024C257.638 17.448 257.95 16.736 258.078 15.888H255.462C254.646 15.888 254.062 16.04 253.71 16.344C253.358 16.632 253.182 16.992 253.182 17.424C253.182 17.888 253.358 18.248 253.71 18.504C254.062 18.76 254.526 18.888 255.102 18.888ZM269.074 21.288C268.018 21.288 267.09 21.12 266.29 20.784C265.49 20.432 264.85 19.952 264.37 19.344C263.89 18.736 263.602 18.032 263.506 17.232H266.602C266.698 17.696 266.954 18.096 267.37 18.432C267.802 18.752 268.354 18.912 269.026 18.912C269.698 18.912 270.186 18.776 270.49 18.504C270.81 18.232 270.97 17.92 270.97 17.568C270.97 17.056 270.746 16.712 270.298 16.536C269.85 16.344 269.226 16.16 268.426 15.984C267.914 15.872 267.394 15.736 266.866 15.576C266.338 15.416 265.85 15.216 265.402 14.976C264.97 14.72 264.618 14.4 264.346 14.016C264.074 13.616 263.938 13.128 263.938 12.552C263.938 11.496 264.354 10.608 265.186 9.888C266.034 9.168 267.218 8.808 268.738 8.808C270.146 8.808 271.266 9.136 272.098 9.792C272.946 10.448 273.45 11.352 273.61 12.504H270.706C270.53 11.624 269.866 11.184 268.714 11.184C268.138 11.184 267.69 11.296 267.37 11.52C267.066 11.744 266.914 12.024 266.914 12.36C266.914 12.712 267.146 12.992 267.61 13.2C268.074 13.408 268.69 13.6 269.458 13.776C270.29 13.968 271.05 14.184 271.738 14.424C272.442 14.648 273.002 14.992 273.418 15.456C273.834 15.904 274.042 16.552 274.042 17.4C274.058 18.136 273.866 18.8 273.466 19.392C273.066 19.984 272.49 20.448 271.738 20.784C270.986 21.12 270.098 21.288 269.074 21.288ZM52.0867 47C50.8387 47 49.8387 46.696 49.0867 46.088C48.3347 45.48 47.9587 44.4 47.9587 42.848V37.664H45.9187V35.096H47.9587L48.3187 31.904H51.0307V35.096H54.2467V37.664H51.0307V42.872C51.0307 43.448 51.1507 43.848 51.3907 44.072C51.6467 44.28 52.0787 44.384 52.6867 44.384H54.1747V47H52.0867ZM60.9882 47.288C59.9642 47.288 59.1242 47.128 58.4682 46.808C57.8122 46.472 57.3242 46.032 57.0042 45.488C56.6842 44.944 56.5242 44.344 56.5242 43.688C56.5242 42.584 56.9562 41.688 57.8202 41C58.6842 40.312 59.9802 39.968 61.7082 39.968H64.7322V39.68C64.7322 38.864 64.5002 38.264 64.0362 37.88C63.5722 37.496 62.9962 37.304 62.3082 37.304C61.6842 37.304 61.1402 37.456 60.6762 37.76C60.2122 38.048 59.9242 38.48 59.8122 39.056H56.8122C56.8922 38.192 57.1802 37.44 57.6762 36.8C58.1882 36.16 58.8442 35.672 59.6442 35.336C60.4442 34.984 61.3402 34.808 62.3322 34.808C64.0282 34.808 65.3642 35.232 66.3402 36.08C67.3162 36.928 67.8042 38.128 67.8042 39.68V47H65.1882L64.9002 45.08C64.5482 45.72 64.0522 46.248 63.4122 46.664C62.7882 47.08 61.9802 47.288 60.9882 47.288ZM61.6842 44.888C62.5642 44.888 63.2442 44.6 63.7242 44.024C64.2202 43.448 64.5322 42.736 64.6602 41.888H62.0442C61.2282 41.888 60.6442 42.04 60.2922 42.344C59.9402 42.632 59.7642 42.992 59.7642 43.424C59.7642 43.888 59.9402 44.248 60.2922 44.504C60.6442 44.76 61.1082 44.888 61.6842 44.888ZM75.6558 47.288C74.5998 47.288 73.6718 47.12 72.8718 46.784C72.0718 46.432 71.4318 45.952 70.9518 45.344C70.4718 44.736 70.1838 44.032 70.0878 43.232H73.1838C73.2798 43.696 73.5358 44.096 73.9518 44.432C74.3838 44.752 74.9358 44.912 75.6078 44.912C76.2798 44.912 76.7678 44.776 77.0718 44.504C77.3918 44.232 77.5518 43.92 77.5518 43.568C77.5518 43.056 77.3278 42.712 76.8798 42.536C76.4318 42.344 75.8078 42.16 75.0078 41.984C74.4958 41.872 73.9758 41.736 73.4478 41.576C72.9198 41.416 72.4318 41.216 71.9838 40.976C71.5518 40.72 71.1998 40.4 70.9278 40.016C70.6558 39.616 70.5198 39.128 70.5198 38.552C70.5198 37.496 70.9358 36.608 71.7678 35.888C72.6158 35.168 73.7998 34.808 75.3198 34.808C76.7278 34.808 77.8478 35.136 78.6798 35.792C79.5278 36.448 80.0318 37.352 80.1918 38.504H77.2878C77.1118 37.624 76.4478 37.184 75.2958 37.184C74.7198 37.184 74.2718 37.296 73.9518 37.52C73.6478 37.744 73.4958 38.024 73.4958 38.36C73.4958 38.712 73.7278 38.992 74.1918 39.2C74.6558 39.408 75.2718 39.6 76.0398 39.776C76.8718 39.968 77.6318 40.184 78.3198 40.424C79.0238 40.648 79.5838 40.992 79.9998 41.456C80.4158 41.904 80.6238 42.552 80.6238 43.4C80.6398 44.136 80.4478 44.8 80.0478 45.392C79.6478 45.984 79.0718 46.448 78.3198 46.784C77.5678 47.12 76.6798 47.288 75.6558 47.288ZM87.4492 47.288C86.4252 47.288 85.5852 47.128 84.9292 46.808C84.2732 46.472 83.7852 46.032 83.4652 45.488C83.1452 44.944 82.9852 44.344 82.9852 43.688C82.9852 42.584 83.4172 41.688 84.2812 41C85.1452 40.312 86.4412 39.968 88.1692 39.968H91.1932V39.68C91.1932 38.864 90.9612 38.264 90.4972 37.88C90.0332 37.496 89.4572 37.304 88.7692 37.304C88.1452 37.304 87.6012 37.456 87.1372 37.76C86.6732 38.048 86.3852 38.48 86.2732 39.056H83.2732C83.3532 38.192 83.6412 37.44 84.1372 36.8C84.6492 36.16 85.3052 35.672 86.1052 35.336C86.9052 34.984 87.8012 34.808 88.7932 34.808C90.4892 34.808 91.8252 35.232 92.8012 36.08C93.7772 36.928 94.2652 38.128 94.2652 39.68V47H91.6492L91.3612 45.08C91.0092 45.72 90.5132 46.248 89.8732 46.664C89.2492 47.08 88.4412 47.288 87.4492 47.288ZM88.1452 44.888C89.0252 44.888 89.7052 44.6 90.1852 44.024C90.6812 43.448 90.9932 42.736 91.1212 41.888H88.5052C87.6892 41.888 87.1052 42.04 86.7532 42.344C86.4012 42.632 86.2252 42.992 86.2252 43.424C86.2252 43.888 86.4012 44.248 86.7532 44.504C87.1052 44.76 87.5692 44.888 88.1452 44.888ZM102.117 47.288C101.061 47.288 100.133 47.12 99.3327 46.784C98.5327 46.432 97.8927 45.952 97.4127 45.344C96.9327 44.736 96.6447 44.032 96.5487 43.232H99.6447C99.7407 43.696 99.9967 44.096 100.413 44.432C100.845 44.752 101.397 44.912 102.069 44.912C102.741 44.912 103.229 44.776 103.533 44.504C103.853 44.232 104.013 43.92 104.013 43.568C104.013 43.056 103.789 42.712 103.341 42.536C102.893 42.344 102.269 42.16 101.469 41.984C100.957 41.872 100.437 41.736 99.9087 41.576C99.3807 41.416 98.8927 41.216 98.4447 40.976C98.0127 40.72 97.6607 40.4 97.3887 40.016C97.1167 39.616 96.9807 39.128 96.9807 38.552C96.9807 37.496 97.3967 36.608 98.2287 35.888C99.0767 35.168 100.261 34.808 101.781 34.808C103.189 34.808 104.309 35.136 105.141 35.792C105.989 36.448 106.493 37.352 106.653 38.504H103.749C103.573 37.624 102.909 37.184 101.757 37.184C101.181 37.184 100.733 37.296 100.413 37.52C100.109 37.744 99.9567 38.024 99.9567 38.36C99.9567 38.712 100.189 38.992 100.653 39.2C101.117 39.408 101.733 39.6 102.501 39.776C103.333 39.968 104.093 40.184 104.781 40.424C105.485 40.648 106.045 40.992 106.461 41.456C106.877 41.904 107.085 42.552 107.085 43.4C107.101 44.136 106.909 44.8 106.509 45.392C106.109 45.984 105.533 46.448 104.781 46.784C104.029 47.12 103.141 47.288 102.117 47.288ZM120.997 47.288C119.877 47.288 118.877 47.016 117.997 46.472C117.117 45.928 116.421 45.184 115.909 44.24C115.397 43.296 115.141 42.224 115.141 41.024C115.141 39.824 115.397 38.76 115.909 37.832C116.421 36.888 117.117 36.152 117.997 35.624C118.877 35.08 119.877 34.808 120.997 34.808C121.893 34.808 122.677 34.976 123.349 35.312C124.021 35.648 124.565 36.12 124.981 36.728V29.72H128.053V47H125.317L124.981 45.296C124.597 45.824 124.085 46.288 123.445 46.688C122.821 47.088 122.005 47.288 120.997 47.288ZM121.645 44.6C122.637 44.6 123.445 44.272 124.069 43.616C124.709 42.944 125.029 42.088 125.029 41.048C125.029 40.008 124.709 39.16 124.069 38.504C123.445 37.832 122.637 37.496 121.645 37.496C120.669 37.496 119.861 37.824 119.221 38.48C118.581 39.136 118.261 39.984 118.261 41.024C118.261 42.064 118.581 42.92 119.221 43.592C119.861 44.264 120.669 44.6 121.645 44.6ZM136.965 47.288C135.765 47.288 134.701 47.032 133.773 46.52C132.845 46.008 132.117 45.288 131.589 44.36C131.061 43.432 130.797 42.36 130.797 41.144C130.797 39.912 131.053 38.816 131.565 37.856C132.093 36.896 132.813 36.152 133.725 35.624C134.653 35.08 135.741 34.808 136.989 34.808C138.157 34.808 139.189 35.064 140.085 35.576C140.981 36.088 141.677 36.792 142.173 37.688C142.685 38.568 142.941 39.552 142.941 40.64C142.941 40.816 142.933 41 142.917 41.192C142.917 41.384 142.909 41.584 142.893 41.792H133.845C133.909 42.72 134.229 43.448 134.805 43.976C135.397 44.504 136.109 44.768 136.941 44.768C137.565 44.768 138.085 44.632 138.501 44.36C138.933 44.072 139.253 43.704 139.461 43.256H142.581C142.357 44.008 141.981 44.696 141.453 45.32C140.941 45.928 140.301 46.408 139.533 46.76C138.781 47.112 137.925 47.288 136.965 47.288ZM136.989 37.304C136.237 37.304 135.573 37.52 134.997 37.952C134.421 38.368 134.053 39.008 133.893 39.872H139.821C139.773 39.088 139.485 38.464 138.957 38C138.429 37.536 137.773 37.304 136.989 37.304ZM157.076 47.288C155.86 47.288 154.788 47.024 153.86 46.496C152.932 45.968 152.196 45.232 151.652 44.288C151.124 43.344 150.86 42.264 150.86 41.048C150.86 39.832 151.124 38.752 151.652 37.808C152.196 36.864 152.932 36.128 153.86 35.6C154.788 35.072 155.86 34.808 157.076 34.808C158.596 34.808 159.876 35.208 160.916 36.008C161.956 36.792 162.62 37.88 162.908 39.272H159.668C159.508 38.696 159.188 38.248 158.708 37.928C158.244 37.592 157.692 37.424 157.052 37.424C156.204 37.424 155.484 37.744 154.892 38.384C154.3 39.024 154.004 39.912 154.004 41.048C154.004 42.184 154.3 43.072 154.892 43.712C155.484 44.352 156.204 44.672 157.052 44.672C157.692 44.672 158.244 44.512 158.708 44.192C159.188 43.872 159.508 43.416 159.668 42.824H162.908C162.62 44.168 161.956 45.248 160.916 46.064C159.876 46.88 158.596 47.288 157.076 47.288ZM169.738 47.288C168.714 47.288 167.874 47.128 167.218 46.808C166.562 46.472 166.074 46.032 165.754 45.488C165.434 44.944 165.274 44.344 165.274 43.688C165.274 42.584 165.706 41.688 166.57 41C167.434 40.312 168.73 39.968 170.458 39.968H173.482V39.68C173.482 38.864 173.25 38.264 172.786 37.88C172.322 37.496 171.746 37.304 171.058 37.304C170.434 37.304 169.89 37.456 169.426 37.76C168.962 38.048 168.674 38.48 168.562 39.056H165.562C165.642 38.192 165.93 37.44 166.426 36.8C166.938 36.16 167.594 35.672 168.394 35.336C169.194 34.984 170.09 34.808 171.082 34.808C172.778 34.808 174.114 35.232 175.09 36.08C176.066 36.928 176.554 38.128 176.554 39.68V47H173.938L173.65 45.08C173.298 45.72 172.802 46.248 172.162 46.664C171.538 47.08 170.73 47.288 169.738 47.288ZM170.434 44.888C171.314 44.888 171.994 44.6 172.474 44.024C172.97 43.448 173.282 42.736 173.41 41.888H170.794C169.978 41.888 169.394 42.04 169.042 42.344C168.69 42.632 168.514 42.992 168.514 43.424C168.514 43.888 168.69 44.248 169.042 44.504C169.394 44.76 169.858 44.888 170.434 44.888ZM179.486 47V35.096H182.198L182.462 36.704C182.846 36.128 183.35 35.672 183.974 35.336C184.614 34.984 185.35 34.808 186.182 34.808C188.022 34.808 189.326 35.52 190.094 36.944C190.526 36.288 191.102 35.768 191.822 35.384C192.558 35 193.358 34.808 194.222 34.808C195.774 34.808 196.966 35.272 197.798 36.2C198.63 37.128 199.046 38.488 199.046 40.28V47H195.974V40.568C195.974 39.544 195.774 38.76 195.374 38.216C194.99 37.672 194.39 37.4 193.574 37.4C192.742 37.4 192.07 37.704 191.558 38.312C191.062 38.92 190.814 39.768 190.814 40.856V47H187.742V40.568C187.742 39.544 187.542 38.76 187.142 38.216C186.742 37.672 186.126 37.4 185.294 37.4C184.478 37.4 183.814 37.704 183.302 38.312C182.806 38.92 182.558 39.768 182.558 40.856V47H179.486ZM209.018 47.288C208.122 47.288 207.338 47.12 206.666 46.784C205.994 46.448 205.45 45.976 205.034 45.368L204.698 47H201.962V29.72H205.034V36.8C205.418 36.272 205.922 35.808 206.546 35.408C207.186 35.008 208.01 34.808 209.018 34.808C210.138 34.808 211.138 35.08 212.018 35.624C212.898 36.168 213.594 36.912 214.106 37.856C214.618 38.8 214.874 39.872 214.874 41.072C214.874 42.272 214.618 43.344 214.106 44.288C213.594 45.216 212.898 45.952 212.018 46.496C211.138 47.024 210.138 47.288 209.018 47.288ZM208.37 44.6C209.346 44.6 210.154 44.272 210.794 43.616C211.434 42.96 211.754 42.112 211.754 41.072C211.754 40.032 211.434 39.176 210.794 38.504C210.154 37.832 209.346 37.496 208.37 37.496C207.378 37.496 206.562 37.832 205.922 38.504C205.298 39.16 204.986 40.008 204.986 41.048C204.986 42.088 205.298 42.944 205.922 43.616C206.562 44.272 207.378 44.6 208.37 44.6ZM219.275 33.248C218.715 33.248 218.251 33.08 217.883 32.744C217.531 32.408 217.355 31.984 217.355 31.472C217.355 30.96 217.531 30.544 217.883 30.224C218.251 29.888 218.715 29.72 219.275 29.72C219.835 29.72 220.291 29.888 220.643 30.224C221.011 30.544 221.195 30.96 221.195 31.472C221.195 31.984 221.011 32.408 220.643 32.744C220.291 33.08 219.835 33.248 219.275 33.248ZM217.739 47V35.096H220.811V47H217.739ZM229.729 47.288C228.577 47.288 227.537 47.024 226.609 46.496C225.697 45.968 224.969 45.24 224.425 44.312C223.897 43.368 223.633 42.28 223.633 41.048C223.633 39.816 223.905 38.736 224.449 37.808C224.993 36.864 225.721 36.128 226.633 35.6C227.561 35.072 228.601 34.808 229.753 34.808C230.889 34.808 231.913 35.072 232.825 35.6C233.753 36.128 234.481 36.864 235.009 37.808C235.553 38.736 235.825 39.816 235.825 41.048C235.825 42.28 235.553 43.368 235.009 44.312C234.481 45.24 233.753 45.968 232.825 46.496C231.897 47.024 230.865 47.288 229.729 47.288ZM229.729 44.624C230.529 44.624 231.225 44.328 231.817 43.736C232.409 43.128 232.705 42.232 232.705 41.048C232.705 39.864 232.409 38.976 231.817 38.384C231.225 37.776 230.537 37.472 229.753 37.472C228.937 37.472 228.233 37.776 227.641 38.384C227.065 38.976 226.777 39.864 226.777 41.048C226.777 42.232 227.065 43.128 227.641 43.736C228.233 44.328 228.929 44.624 229.729 44.624ZM239.892 47.168C239.332 47.168 238.868 46.992 238.5 46.64C238.148 46.288 237.972 45.864 237.972 45.368C237.972 44.856 238.148 44.424 238.5 44.072C238.868 43.72 239.332 43.544 239.892 43.544C240.452 43.544 240.908 43.72 241.26 44.072C241.628 44.424 241.812 44.856 241.812 45.368C241.812 45.864 241.628 46.288 241.26 46.64C240.908 46.992 240.452 47.168 239.892 47.168Z" fill="#201E1C"/>
<path d="M6.70211 90V81.404H3.80411V80.2H11.0701V81.404H8.18611V90H6.70211ZM11.6646 90V83.056H12.9946L13.1206 84.372C13.3632 83.9147 13.6992 83.5553 14.1286 83.294C14.5672 83.0233 15.0946 82.888 15.7106 82.888V84.442H15.3046C14.8939 84.442 14.5252 84.512 14.1986 84.652C13.8812 84.7827 13.6246 85.0113 13.4286 85.338C13.2419 85.6553 13.1486 86.0987 13.1486 86.668V90H11.6646ZM19.3349 90.168C18.7469 90.168 18.2616 90.07 17.8789 89.874C17.4963 89.678 17.2116 89.4213 17.0249 89.104C16.8383 88.7773 16.7449 88.4227 16.7449 88.04C16.7449 87.368 17.0063 86.836 17.5289 86.444C18.0516 86.052 18.7983 85.856 19.7689 85.856H21.5889V85.73C21.5889 85.1887 21.4396 84.7827 21.1409 84.512C20.8516 84.2413 20.4736 84.106 20.0069 84.106C19.5963 84.106 19.2369 84.2087 18.9289 84.414C18.6303 84.61 18.4483 84.904 18.3829 85.296H16.8989C16.9456 84.792 17.1136 84.3627 17.4029 84.008C17.7016 83.644 18.0749 83.3687 18.5229 83.182C18.9803 82.986 19.4796 82.888 20.0209 82.888C20.9916 82.888 21.7429 83.1447 22.2749 83.658C22.8069 84.162 23.0729 84.8527 23.0729 85.73V90H21.7849L21.6589 88.81C21.4629 89.1927 21.1783 89.5147 20.8049 89.776C20.4316 90.0373 19.9416 90.168 19.3349 90.168ZM19.6289 88.964C20.0303 88.964 20.3663 88.8707 20.6369 88.684C20.9169 88.488 21.1316 88.2313 21.2809 87.914C21.4396 87.5967 21.5376 87.2467 21.5749 86.864H19.9229C19.3349 86.864 18.9149 86.9667 18.6629 87.172C18.4203 87.3773 18.2989 87.634 18.2989 87.942C18.2989 88.2593 18.4156 88.5113 18.6489 88.698C18.8916 88.8753 19.2183 88.964 19.6289 88.964ZM28.0512 90.168C27.3699 90.168 26.7632 90.0187 26.2312 89.72C25.7086 89.412 25.2979 88.9873 24.9992 88.446C24.7006 87.9047 24.5512 87.2747 24.5512 86.556C24.5512 85.828 24.6959 85.1887 24.9852 84.638C25.2839 84.0873 25.6946 83.658 26.2172 83.35C26.7492 83.042 27.3652 82.888 28.0652 82.888C28.7466 82.888 29.3392 83.042 29.8432 83.35C30.3472 83.6487 30.7392 84.05 31.0192 84.554C31.2992 85.058 31.4392 85.6133 31.4392 86.22C31.4392 86.3133 31.4346 86.416 31.4252 86.528C31.4252 86.6307 31.4206 86.7473 31.4112 86.878H26.0072C26.0539 87.55 26.2732 88.0633 26.6652 88.418C27.0666 88.7633 27.5286 88.936 28.0512 88.936C28.4712 88.936 28.8212 88.8427 29.1012 88.656C29.3906 88.46 29.6052 88.1987 29.7452 87.872H31.2292C31.0426 88.5253 30.6692 89.0713 30.1092 89.51C29.5586 89.9487 28.8726 90.168 28.0512 90.168ZM28.0512 84.106C27.5566 84.106 27.1179 84.2553 26.7352 84.554C26.3526 84.8433 26.1192 85.282 26.0352 85.87H29.9552C29.9272 85.3287 29.7359 84.8993 29.3812 84.582C29.0266 84.2647 28.5832 84.106 28.0512 84.106ZM32.979 90V83.056H34.295L34.421 84.036C34.645 83.6813 34.939 83.4013 35.303 83.196C35.6763 82.9907 36.1057 82.888 36.591 82.888C37.6923 82.888 38.4577 83.322 38.887 84.19C39.139 83.7887 39.475 83.4713 39.895 83.238C40.3243 83.0047 40.7863 82.888 41.281 82.888C42.149 82.888 42.8303 83.1493 43.325 83.672C43.8197 84.1947 44.067 84.974 44.067 86.01V90H42.583V86.164C42.583 84.82 42.0697 84.148 41.043 84.148C40.5203 84.148 40.091 84.344 39.755 84.736C39.4283 85.128 39.265 85.688 39.265 86.416V90H37.781V86.164C37.781 84.82 37.263 84.148 36.227 84.148C35.7137 84.148 35.289 84.344 34.953 84.736C34.6263 85.128 34.463 85.688 34.463 86.416V90H32.979ZM49.0512 90.168C48.3886 90.168 47.7912 90.0187 47.2592 89.72C46.7366 89.412 46.3212 88.9873 46.0132 88.446C45.7052 87.8953 45.5512 87.256 45.5512 86.528C45.5512 85.8 45.7052 85.1653 46.0132 84.624C46.3306 84.0733 46.7552 83.6487 47.2872 83.35C47.8192 83.042 48.4119 82.888 49.0652 82.888C49.7279 82.888 50.3206 83.042 50.8432 83.35C51.3752 83.6487 51.7952 84.0733 52.1032 84.624C52.4206 85.1653 52.5792 85.8 52.5792 86.528C52.5792 87.256 52.4206 87.8953 52.1032 88.446C51.7952 88.9873 51.3752 89.412 50.8432 89.72C50.3112 90.0187 49.7139 90.168 49.0512 90.168ZM49.0512 88.894C49.4059 88.894 49.7326 88.8053 50.0312 88.628C50.3392 88.4507 50.5866 88.1893 50.7732 87.844C50.9599 87.4893 51.0532 87.0507 51.0532 86.528C51.0532 86.0053 50.9599 85.5713 50.7732 85.226C50.5959 84.8713 50.3532 84.6053 50.0452 84.428C49.7466 84.2507 49.4199 84.162 49.0652 84.162C48.7106 84.162 48.3792 84.2507 48.0712 84.428C47.7726 84.6053 47.5299 84.8713 47.3432 85.226C47.1566 85.5713 47.0632 86.0053 47.0632 86.528C47.0632 87.0507 47.1566 87.4893 47.3432 87.844C47.5299 88.1893 47.7726 88.4507 48.0712 88.628C48.3699 88.8053 48.6966 88.894 49.0512 88.894ZM56.9561 90.168C56.0788 90.168 55.3554 89.9533 54.7861 89.524C54.2168 89.0947 53.8901 88.5253 53.8061 87.816H55.3041C55.3788 88.1333 55.5561 88.4087 55.8361 88.642C56.1161 88.866 56.4848 88.978 56.9421 88.978C57.3901 88.978 57.7168 88.8847 57.9221 88.698C58.1274 88.5113 58.2301 88.2967 58.2301 88.054C58.2301 87.6993 58.0854 87.4613 57.7961 87.34C57.5161 87.2093 57.1241 87.0927 56.6201 86.99C56.2281 86.906 55.8361 86.794 55.4441 86.654C55.0614 86.514 54.7394 86.318 54.4781 86.066C54.2261 85.8047 54.1001 85.4547 54.1001 85.016C54.1001 84.4093 54.3334 83.9053 54.8001 83.504C55.2668 83.0933 55.9201 82.888 56.7601 82.888C57.5348 82.888 58.1601 83.0747 58.6361 83.448C59.1214 83.8213 59.4061 84.3487 59.4901 85.03H58.0621C58.0154 84.7313 57.8754 84.498 57.6421 84.33C57.4181 84.162 57.1148 84.078 56.7321 84.078C56.3588 84.078 56.0694 84.1573 55.8641 84.316C55.6588 84.4653 55.5561 84.6613 55.5561 84.904C55.5561 85.1467 55.6961 85.338 55.9761 85.478C56.2654 85.618 56.6434 85.744 57.1101 85.856C57.5768 85.9587 58.0061 86.08 58.3981 86.22C58.7994 86.3507 59.1214 86.5467 59.3641 86.808C59.6068 87.0693 59.7281 87.452 59.7281 87.956C59.7374 88.5907 59.4901 89.118 58.9861 89.538C58.4914 89.958 57.8148 90.168 56.9561 90.168ZM65.7155 81.74C65.4355 81.74 65.2022 81.656 65.0155 81.488C64.8382 81.3107 64.7495 81.0913 64.7495 80.83C64.7495 80.5687 64.8382 80.354 65.0155 80.186C65.2022 80.0087 65.4355 79.92 65.7155 79.92C65.9955 79.92 66.2242 80.0087 66.4015 80.186C66.5882 80.354 66.6815 80.5687 66.6815 80.83C66.6815 81.0913 66.5882 81.3107 66.4015 81.488C66.2242 81.656 65.9955 81.74 65.7155 81.74ZM64.9735 90V83.056H66.4575V90H64.9735ZM68.4165 90V83.056H69.7325L69.8445 84.274C70.0592 83.8447 70.3718 83.5087 70.7825 83.266C71.2025 83.014 71.6832 82.888 72.2245 82.888C73.0645 82.888 73.7225 83.1493 74.1985 83.672C74.6838 84.1947 74.9265 84.974 74.9265 86.01V90H73.4565V86.164C73.4565 84.82 72.9058 84.148 71.8045 84.148C71.2538 84.148 70.7965 84.344 70.4325 84.736C70.0778 85.128 69.9005 85.688 69.9005 86.416V90H68.4165ZM77.0243 90V84.302H76.0303V83.056H77.0243V82.048C77.0243 81.292 77.211 80.7507 77.5843 80.424C77.967 80.088 78.5037 79.92 79.1943 79.92H79.9223V81.18H79.4183C79.0917 81.18 78.8583 81.25 78.7183 81.39C78.5783 81.5207 78.5083 81.7447 78.5083 82.062V83.056H80.1043V84.302H78.5083V90H77.0243ZM84.4887 90.168C83.8261 90.168 83.2287 90.0187 82.6967 89.72C82.1741 89.412 81.7587 88.9873 81.4507 88.446C81.1427 87.8953 80.9887 87.256 80.9887 86.528C80.9887 85.8 81.1427 85.1653 81.4507 84.624C81.7681 84.0733 82.1927 83.6487 82.7247 83.35C83.2567 83.042 83.8494 82.888 84.5027 82.888C85.1654 82.888 85.7581 83.042 86.2807 83.35C86.8127 83.6487 87.2327 84.0733 87.5407 84.624C87.8581 85.1653 88.0167 85.8 88.0167 86.528C88.0167 87.256 87.8581 87.8953 87.5407 88.446C87.2327 88.9873 86.8127 89.412 86.2807 89.72C85.7487 90.0187 85.1514 90.168 84.4887 90.168ZM84.4887 88.894C84.8434 88.894 85.1701 88.8053 85.4687 88.628C85.7767 88.4507 86.0241 88.1893 86.2107 87.844C86.3974 87.4893 86.4907 87.0507 86.4907 86.528C86.4907 86.0053 86.3974 85.5713 86.2107 85.226C86.0334 84.8713 85.7907 84.6053 85.4827 84.428C85.1841 84.2507 84.8574 84.162 84.5027 84.162C84.1481 84.162 83.8167 84.2507 83.5087 84.428C83.2101 84.6053 82.9674 84.8713 82.7807 85.226C82.5941 85.5713 82.5007 86.0053 82.5007 86.528C82.5007 87.0507 82.5941 87.4893 82.7807 87.844C82.9674 88.1893 83.2101 88.4507 83.5087 88.628C83.8074 88.8053 84.1341 88.894 84.4887 88.894ZM89.6216 90V83.056H90.9516L91.0776 84.372C91.3203 83.9147 91.6563 83.5553 92.0856 83.294C92.5243 83.0233 93.0516 82.888 93.6676 82.888V84.442H93.2616C92.8509 84.442 92.4823 84.512 92.1556 84.652C91.8383 84.7827 91.5816 85.0113 91.3856 85.338C91.1989 85.6553 91.1056 86.0987 91.1056 86.668V90H89.6216ZM94.94 90V83.056H96.256L96.382 84.036C96.606 83.6813 96.9 83.4013 97.264 83.196C97.6373 82.9907 98.0666 82.888 98.552 82.888C99.6533 82.888 100.419 83.322 100.848 84.19C101.1 83.7887 101.436 83.4713 101.856 83.238C102.285 83.0047 102.747 82.888 103.242 82.888C104.11 82.888 104.791 83.1493 105.286 83.672C105.781 84.1947 106.028 84.974 106.028 86.01V90H104.544V86.164C104.544 84.82 104.031 84.148 103.004 84.148C102.481 84.148 102.052 84.344 101.716 84.736C101.389 85.128 101.226 85.688 101.226 86.416V90H99.742V86.164C99.742 84.82 99.224 84.148 98.188 84.148C97.6746 84.148 97.25 84.344 96.914 84.736C96.5873 85.128 96.424 85.688 96.424 86.416V90H94.94ZM110.116 90.168C109.528 90.168 109.043 90.07 108.66 89.874C108.278 89.678 107.993 89.4213 107.806 89.104C107.62 88.7773 107.526 88.4227 107.526 88.04C107.526 87.368 107.788 86.836 108.31 86.444C108.833 86.052 109.58 85.856 110.55 85.856H112.37V85.73C112.37 85.1887 112.221 84.7827 111.922 84.512C111.633 84.2413 111.255 84.106 110.788 84.106C110.378 84.106 110.018 84.2087 109.71 84.414C109.412 84.61 109.23 84.904 109.164 85.296H107.68C107.727 84.792 107.895 84.3627 108.184 84.008C108.483 83.644 108.856 83.3687 109.304 83.182C109.762 82.986 110.261 82.888 110.802 82.888C111.773 82.888 112.524 83.1447 113.056 83.658C113.588 84.162 113.854 84.8527 113.854 85.73V90H112.566L112.44 88.81C112.244 89.1927 111.96 89.5147 111.586 89.776C111.213 90.0373 110.723 90.168 110.116 90.168ZM110.41 88.964C110.812 88.964 111.148 88.8707 111.418 88.684C111.698 88.488 111.913 88.2313 112.062 87.914C112.221 87.5967 112.319 87.2467 112.356 86.864H110.704C110.116 86.864 109.696 86.9667 109.444 87.172C109.202 87.3773 109.08 87.634 109.08 87.942C109.08 88.2593 109.197 88.5113 109.43 88.698C109.673 88.8753 110 88.964 110.41 88.964ZM118.874 90.168C118.193 90.168 117.582 90.014 117.04 89.706C116.508 89.398 116.088 88.9733 115.78 88.432C115.482 87.8813 115.332 87.2467 115.332 86.528C115.332 85.8093 115.482 85.1793 115.78 84.638C116.088 84.0873 116.508 83.658 117.04 83.35C117.582 83.042 118.193 82.888 118.874 82.888C119.733 82.888 120.452 83.112 121.03 83.56C121.618 84.008 121.996 84.6147 122.164 85.38H120.61C120.517 84.9973 120.312 84.6987 119.994 84.484C119.677 84.2693 119.304 84.162 118.874 84.162C118.51 84.162 118.174 84.2553 117.866 84.442C117.558 84.6193 117.311 84.8853 117.124 85.24C116.938 85.5853 116.844 86.0147 116.844 86.528C116.844 87.0413 116.938 87.4753 117.124 87.83C117.311 88.1753 117.558 88.4413 117.866 88.628C118.174 88.8147 118.51 88.908 118.874 88.908C119.304 88.908 119.677 88.8007 119.994 88.586C120.312 88.3713 120.517 88.068 120.61 87.676H122.164C122.006 88.4227 121.632 89.0247 121.044 89.482C120.456 89.9393 119.733 90.168 118.874 90.168ZM124.614 81.74C124.334 81.74 124.101 81.656 123.914 81.488C123.737 81.3107 123.648 81.0913 123.648 80.83C123.648 80.5687 123.737 80.354 123.914 80.186C124.101 80.0087 124.334 79.92 124.614 79.92C124.894 79.92 125.123 80.0087 125.3 80.186C125.487 80.354 125.58 80.5687 125.58 80.83C125.58 81.0913 125.487 81.3107 125.3 81.488C125.123 81.656 124.894 81.74 124.614 81.74ZM123.872 90V83.056H125.356V90H123.872ZM130.563 90.168C129.9 90.168 129.303 90.0187 128.771 89.72C128.248 89.412 127.833 88.9873 127.525 88.446C127.217 87.8953 127.063 87.256 127.063 86.528C127.063 85.8 127.217 85.1653 127.525 84.624C127.842 84.0733 128.267 83.6487 128.799 83.35C129.331 83.042 129.924 82.888 130.577 82.888C131.24 82.888 131.832 83.042 132.355 83.35C132.887 83.6487 133.307 84.0733 133.615 84.624C133.932 85.1653 134.091 85.8 134.091 86.528C134.091 87.256 133.932 87.8953 133.615 88.446C133.307 88.9873 132.887 89.412 132.355 89.72C131.823 90.0187 131.226 90.168 130.563 90.168ZM130.563 88.894C130.918 88.894 131.244 88.8053 131.543 88.628C131.851 88.4507 132.098 88.1893 132.285 87.844C132.472 87.4893 132.565 87.0507 132.565 86.528C132.565 86.0053 132.472 85.5713 132.285 85.226C132.108 84.8713 131.865 84.6053 131.557 84.428C131.258 84.2507 130.932 84.162 130.577 84.162C130.222 84.162 129.891 84.2507 129.583 84.428C129.284 84.6053 129.042 84.8713 128.855 85.226C128.668 85.5713 128.575 86.0053 128.575 86.528C128.575 87.0507 128.668 87.4893 128.855 87.844C129.042 88.1893 129.284 88.4507 129.583 88.628C129.882 88.8053 130.208 88.894 130.563 88.894ZM130.185 82.482V81.418L133.237 79.682V80.914L130.185 82.482ZM135.696 90V83.056H137.012L137.124 84.274C137.338 83.8447 137.651 83.5087 138.062 83.266C138.482 83.014 138.962 82.888 139.504 82.888C140.344 82.888 141.002 83.1493 141.478 83.672C141.963 84.1947 142.206 84.974 142.206 86.01V90H140.736V86.164C140.736 84.82 140.185 84.148 139.084 84.148C138.533 84.148 138.076 84.344 137.712 84.736C137.357 85.128 137.18 85.688 137.18 86.416V90H135.696ZM150.729 90.168C150.048 90.168 149.441 90.0187 148.909 89.72C148.386 89.412 147.976 88.9873 147.677 88.446C147.378 87.9047 147.229 87.2747 147.229 86.556C147.229 85.828 147.374 85.1887 147.663 84.638C147.962 84.0873 148.372 83.658 148.895 83.35C149.427 83.042 150.043 82.888 150.743 82.888C151.424 82.888 152.017 83.042 152.521 83.35C153.025 83.6487 153.417 84.05 153.697 84.554C153.977 85.058 154.117 85.6133 154.117 86.22C154.117 86.3133 154.112 86.416 154.103 86.528C154.103 86.6307 154.098 86.7473 154.089 86.878H148.685C148.732 87.55 148.951 88.0633 149.343 88.418C149.744 88.7633 150.206 88.936 150.729 88.936C151.149 88.936 151.499 88.8427 151.779 88.656C152.068 88.46 152.283 88.1987 152.423 87.872H153.907C153.72 88.5253 153.347 89.0713 152.787 89.51C152.236 89.9487 151.55 90.168 150.729 90.168ZM150.729 84.106C150.234 84.106 149.796 84.2553 149.413 84.554C149.03 84.8433 148.797 85.282 148.713 85.87H152.633C152.605 85.3287 152.414 84.8993 152.059 84.582C151.704 84.2647 151.261 84.106 150.729 84.106ZM155.657 90V83.056H156.973L157.085 84.274C157.299 83.8447 157.612 83.5087 158.023 83.266C158.443 83.014 158.923 82.888 159.465 82.888C160.305 82.888 160.963 83.1493 161.439 83.672C161.924 84.1947 162.167 84.974 162.167 86.01V90H160.697V86.164C160.697 84.82 160.146 84.148 159.045 84.148C158.494 84.148 158.037 84.344 157.673 84.736C157.318 85.128 157.141 85.688 157.141 86.416V90H155.657ZM170.354 90C169.673 90 169.131 89.8367 168.73 89.51C168.329 89.174 168.128 88.5813 168.128 87.732V84.302H166.938V83.056H168.128L168.31 81.292H169.612V83.056H171.572V84.302H169.612V87.732C169.612 88.1147 169.691 88.3807 169.85 88.53C170.018 88.67 170.303 88.74 170.704 88.74H171.502V90H170.354ZM173.942 81.74C173.662 81.74 173.429 81.656 173.242 81.488C173.065 81.3107 172.976 81.0913 172.976 80.83C172.976 80.5687 173.065 80.354 173.242 80.186C173.429 80.0087 173.662 79.92 173.942 79.92C174.222 79.92 174.451 80.0087 174.628 80.186C174.815 80.354 174.908 80.5687 174.908 80.83C174.908 81.0913 174.815 81.3107 174.628 81.488C174.451 81.656 174.222 81.74 173.942 81.74ZM173.2 90V83.056H174.684V90H173.2ZM179.891 90.168C179.21 90.168 178.603 90.0187 178.071 89.72C177.548 89.412 177.138 88.9873 176.839 88.446C176.54 87.9047 176.391 87.2747 176.391 86.556C176.391 85.828 176.536 85.1887 176.825 84.638C177.124 84.0873 177.534 83.658 178.057 83.35C178.589 83.042 179.205 82.888 179.905 82.888C180.586 82.888 181.179 83.042 181.683 83.35C182.187 83.6487 182.579 84.05 182.859 84.554C183.139 85.058 183.279 85.6133 183.279 86.22C183.279 86.3133 183.274 86.416 183.265 86.528C183.265 86.6307 183.26 86.7473 183.251 86.878H177.847C177.894 87.55 178.113 88.0633 178.505 88.418C178.906 88.7633 179.368 88.936 179.891 88.936C180.311 88.936 180.661 88.8427 180.941 88.656C181.23 88.46 181.445 88.1987 181.585 87.872H183.069C182.882 88.5253 182.509 89.0713 181.949 89.51C181.398 89.9487 180.712 90.168 179.891 90.168ZM179.891 84.106C179.396 84.106 178.958 84.2553 178.575 84.554C178.192 84.8433 177.959 85.282 177.875 85.87H181.795C181.767 85.3287 181.576 84.8993 181.221 84.582C180.866 84.2647 180.423 84.106 179.891 84.106ZM184.819 90V83.056H186.135L186.261 84.036C186.485 83.6813 186.779 83.4013 187.143 83.196C187.516 82.9907 187.946 82.888 188.431 82.888C189.532 82.888 190.298 83.322 190.727 84.19C190.979 83.7887 191.315 83.4713 191.735 83.238C192.164 83.0047 192.626 82.888 193.121 82.888C193.989 82.888 194.67 83.1493 195.165 83.672C195.66 84.1947 195.907 84.974 195.907 86.01V90H194.423V86.164C194.423 84.82 193.91 84.148 192.883 84.148C192.36 84.148 191.931 84.344 191.595 84.736C191.268 85.128 191.105 85.688 191.105 86.416V90H189.621V86.164C189.621 84.82 189.103 84.148 188.067 84.148C187.554 84.148 187.129 84.344 186.793 84.736C186.466 85.128 186.303 85.688 186.303 86.416V90H184.819ZM197.643 93.08V83.056H198.973L199.127 84.134C199.351 83.8073 199.659 83.518 200.051 83.266C200.443 83.014 200.947 82.888 201.563 82.888C202.235 82.888 202.828 83.0467 203.341 83.364C203.854 83.6813 204.256 84.1153 204.545 84.666C204.844 85.2167 204.993 85.842 204.993 86.542C204.993 87.242 204.844 87.8673 204.545 88.418C204.256 88.9593 203.854 89.3887 203.341 89.706C202.828 90.014 202.23 90.168 201.549 90.168C201.008 90.168 200.527 90.0607 200.107 89.846C199.696 89.6313 199.37 89.328 199.127 88.936V93.08H197.643ZM201.297 88.88C201.932 88.88 202.454 88.6653 202.865 88.236C203.276 87.7973 203.481 87.228 203.481 86.528C203.481 86.0707 203.388 85.6647 203.201 85.31C203.014 84.9553 202.758 84.68 202.431 84.484C202.104 84.2787 201.726 84.176 201.297 84.176C200.662 84.176 200.14 84.3953 199.729 84.834C199.328 85.2727 199.127 85.8373 199.127 86.528C199.127 87.228 199.328 87.7973 199.729 88.236C200.14 88.6653 200.662 88.88 201.297 88.88ZM209.846 90.168C209.183 90.168 208.586 90.0187 208.054 89.72C207.531 89.412 207.116 88.9873 206.808 88.446C206.5 87.8953 206.346 87.256 206.346 86.528C206.346 85.8 206.5 85.1653 206.808 84.624C207.125 84.0733 207.55 83.6487 208.082 83.35C208.614 83.042 209.207 82.888 209.86 82.888C210.523 82.888 211.115 83.042 211.638 83.35C212.17 83.6487 212.59 84.0733 212.898 84.624C213.215 85.1653 213.374 85.8 213.374 86.528C213.374 87.256 213.215 87.8953 212.898 88.446C212.59 88.9873 212.17 89.412 211.638 89.72C211.106 90.0187 210.509 90.168 209.846 90.168ZM209.846 88.894C210.201 88.894 210.527 88.8053 210.826 88.628C211.134 88.4507 211.381 88.1893 211.568 87.844C211.755 87.4893 211.848 87.0507 211.848 86.528C211.848 86.0053 211.755 85.5713 211.568 85.226C211.391 84.8713 211.148 84.6053 210.84 84.428C210.541 84.2507 210.215 84.162 209.86 84.162C209.505 84.162 209.174 84.2507 208.866 84.428C208.567 84.6053 208.325 84.8713 208.138 85.226C207.951 85.5713 207.858 86.0053 207.858 86.528C207.858 87.0507 207.951 87.4893 208.138 87.844C208.325 88.1893 208.567 88.4507 208.866 88.628C209.165 88.8053 209.491 88.894 209.846 88.894ZM218.506 90V83.056H219.836L219.962 84.372C220.205 83.9147 220.541 83.5553 220.97 83.294C221.409 83.0233 221.936 82.888 222.552 82.888V84.442H222.146C221.736 84.442 221.367 84.512 221.04 84.652C220.723 84.7827 220.466 85.0113 220.27 85.338C220.084 85.6553 219.99 86.0987 219.99 86.668V90H218.506ZM226.881 90.168C226.2 90.168 225.593 90.0187 225.061 89.72C224.539 89.412 224.128 88.9873 223.829 88.446C223.531 87.9047 223.381 87.2747 223.381 86.556C223.381 85.828 223.526 85.1887 223.815 84.638C224.114 84.0873 224.525 83.658 225.047 83.35C225.579 83.042 226.195 82.888 226.895 82.888C227.577 82.888 228.169 83.042 228.673 83.35C229.177 83.6487 229.569 84.05 229.849 84.554C230.129 85.058 230.269 85.6133 230.269 86.22C230.269 86.3133 230.265 86.416 230.255 86.528C230.255 86.6307 230.251 86.7473 230.241 86.878H224.837C224.884 87.55 225.103 88.0633 225.495 88.418C225.897 88.7633 226.359 88.936 226.881 88.936C227.301 88.936 227.651 88.8427 227.931 88.656C228.221 88.46 228.435 88.1987 228.575 87.872H230.059C229.873 88.5253 229.499 89.0713 228.939 89.51C228.389 89.9487 227.703 90.168 226.881 90.168ZM226.881 84.106C226.387 84.106 225.948 84.2553 225.565 84.554C225.183 84.8433 224.949 85.282 224.865 85.87H228.785C228.757 85.3287 228.566 84.8993 228.211 84.582C227.857 84.2647 227.413 84.106 226.881 84.106ZM234.161 90.168C233.573 90.168 233.088 90.07 232.705 89.874C232.322 89.678 232.038 89.4213 231.851 89.104C231.664 88.7773 231.571 88.4227 231.571 88.04C231.571 87.368 231.832 86.836 232.355 86.444C232.878 86.052 233.624 85.856 234.595 85.856H236.415V85.73C236.415 85.1887 236.266 84.7827 235.967 84.512C235.678 84.2413 235.3 84.106 234.833 84.106C234.422 84.106 234.063 84.2087 233.755 84.414C233.456 84.61 233.274 84.904 233.209 85.296H231.725C231.772 84.792 231.94 84.3627 232.229 84.008C232.528 83.644 232.901 83.3687 233.349 83.182C233.806 82.986 234.306 82.888 234.847 82.888C235.818 82.888 236.569 83.1447 237.101 83.658C237.633 84.162 237.899 84.8527 237.899 85.73V90H236.611L236.485 88.81C236.289 89.1927 236.004 89.5147 235.631 89.776C235.258 90.0373 234.768 90.168 234.161 90.168ZM234.455 88.964C234.856 88.964 235.192 88.8707 235.463 88.684C235.743 88.488 235.958 88.2313 236.107 87.914C236.266 87.5967 236.364 87.2467 236.401 86.864H234.749C234.161 86.864 233.741 86.9667 233.489 87.172C233.246 87.3773 233.125 87.634 233.125 87.942C233.125 88.2593 233.242 88.5113 233.475 88.698C233.718 88.8753 234.044 88.964 234.455 88.964ZM239.629 90V79.92H241.113V90H239.629ZM249.684 90.168C249.012 90.168 248.419 90.0093 247.906 89.692C247.393 89.3747 246.991 88.9407 246.702 88.39C246.413 87.8393 246.268 87.214 246.268 86.514C246.268 85.814 246.413 85.1933 246.702 84.652C246.991 84.1013 247.393 83.672 247.906 83.364C248.429 83.0467 249.026 82.888 249.698 82.888C250.249 82.888 250.729 82.9953 251.14 83.21C251.56 83.4247 251.887 83.728 252.12 84.12V79.92H253.604V90H252.274L252.12 88.922C251.896 89.2487 251.588 89.538 251.196 89.79C250.804 90.042 250.3 90.168 249.684 90.168ZM249.95 88.88C250.585 88.88 251.103 88.6607 251.504 88.222C251.915 87.7833 252.12 87.2187 252.12 86.528C252.12 85.828 251.915 85.2633 251.504 84.834C251.103 84.3953 250.585 84.176 249.95 84.176C249.315 84.176 248.793 84.3953 248.382 84.834C247.971 85.2633 247.766 85.828 247.766 86.528C247.766 86.9853 247.859 87.3913 248.046 87.746C248.233 88.1007 248.489 88.3807 248.816 88.586C249.152 88.782 249.53 88.88 249.95 88.88ZM258.723 90.168C258.042 90.168 257.435 90.0187 256.903 89.72C256.38 89.412 255.97 88.9873 255.671 88.446C255.372 87.9047 255.223 87.2747 255.223 86.556C255.223 85.828 255.368 85.1887 255.657 84.638C255.956 84.0873 256.366 83.658 256.889 83.35C257.421 83.042 258.037 82.888 258.737 82.888C259.418 82.888 260.011 83.042 260.515 83.35C261.019 83.6487 261.411 84.05 261.691 84.554C261.971 85.058 262.111 85.6133 262.111 86.22C262.111 86.3133 262.106 86.416 262.097 86.528C262.097 86.6307 262.092 86.7473 262.083 86.878H256.679C256.726 87.55 256.945 88.0633 257.337 88.418C257.738 88.7633 258.2 88.936 258.723 88.936C259.143 88.936 259.493 88.8427 259.773 88.656C260.062 88.46 260.277 88.1987 260.417 87.872H261.901C261.714 88.5253 261.341 89.0713 260.781 89.51C260.23 89.9487 259.544 90.168 258.723 90.168ZM258.723 84.106C258.228 84.106 257.79 84.2553 257.407 84.554C257.024 84.8433 256.791 85.282 256.707 85.87H260.627C260.599 85.3287 260.408 84.8993 260.053 84.582C259.698 84.2647 259.255 84.106 258.723 84.106ZM267.178 90V79.92H268.662V90H267.178ZM272.894 90.168C272.306 90.168 271.82 90.07 271.438 89.874C271.055 89.678 270.77 89.4213 270.584 89.104C270.397 88.7773 270.304 88.4227 270.304 88.04C270.304 87.368 270.565 86.836 271.088 86.444C271.61 86.052 272.357 85.856 273.328 85.856H275.148V85.73C275.148 85.1887 274.998 84.7827 274.7 84.512C274.41 84.2413 274.032 84.106 273.566 84.106C273.155 84.106 272.796 84.2087 272.488 84.414C272.189 84.61 272.007 84.904 271.942 85.296H270.458C270.504 84.792 270.672 84.3627 270.962 84.008C271.26 83.644 271.634 83.3687 272.082 83.182C272.539 82.986 273.038 82.888 273.58 82.888C274.55 82.888 275.302 83.1447 275.834 83.658C276.366 84.162 276.632 84.8527 276.632 85.73V90H275.344L275.218 88.81C275.022 89.1927 274.737 89.5147 274.364 89.776C273.99 90.0373 273.5 90.168 272.894 90.168ZM273.188 88.964C273.589 88.964 273.925 88.8707 274.196 88.684C274.476 88.488 274.69 88.2313 274.84 87.914C274.998 87.5967 275.096 87.2467 275.134 86.864H273.482C272.894 86.864 272.474 86.9667 272.222 87.172C271.979 87.3773 271.858 87.634 271.858 87.942C271.858 88.2593 271.974 88.5113 272.208 88.698C272.45 88.8753 272.777 88.964 273.188 88.964ZM281.134 90.168C280.256 90.168 279.533 89.9533 278.964 89.524C278.394 89.0947 278.068 88.5253 277.984 87.816H279.482C279.556 88.1333 279.734 88.4087 280.014 88.642C280.294 88.866 280.662 88.978 281.12 88.978C281.568 88.978 281.894 88.8847 282.1 88.698C282.305 88.5113 282.408 88.2967 282.408 88.054C282.408 87.6993 282.263 87.4613 281.974 87.34C281.694 87.2093 281.302 87.0927 280.798 86.99C280.406 86.906 280.014 86.794 279.622 86.654C279.239 86.514 278.917 86.318 278.656 86.066C278.404 85.8047 278.278 85.4547 278.278 85.016C278.278 84.4093 278.511 83.9053 278.978 83.504C279.444 83.0933 280.098 82.888 280.938 82.888C281.712 82.888 282.338 83.0747 282.814 83.448C283.299 83.8213 283.584 84.3487 283.668 85.03H282.24C282.193 84.7313 282.053 84.498 281.82 84.33C281.596 84.162 281.292 84.078 280.91 84.078C280.536 84.078 280.247 84.1573 280.042 84.316C279.836 84.4653 279.734 84.6613 279.734 84.904C279.734 85.1467 279.874 85.338 280.154 85.478C280.443 85.618 280.821 85.744 281.288 85.856C281.754 85.9587 282.184 86.08 282.576 86.22C282.977 86.3507 283.299 86.5467 283.542 86.808C283.784 87.0693 283.906 87.452 283.906 87.956C283.915 88.5907 283.668 89.118 283.164 89.538C282.669 89.958 281.992 90.168 281.134 90.168ZM27.2387 108.168C26.5574 108.168 25.9461 108.014 25.4047 107.706C24.8727 107.398 24.4527 106.973 24.1447 106.432C23.8461 105.881 23.6967 105.247 23.6967 104.528C23.6967 103.809 23.8461 103.179 24.1447 102.638C24.4527 102.087 24.8727 101.658 25.4047 101.35C25.9461 101.042 26.5574 100.888 27.2387 100.888C28.0974 100.888 28.8161 101.112 29.3947 101.56C29.9827 102.008 30.3607 102.615 30.5287 103.38H28.9747C28.8814 102.997 28.6761 102.699 28.3587 102.484C28.0414 102.269 27.6681 102.162 27.2387 102.162C26.8747 102.162 26.5387 102.255 26.2307 102.442C25.9227 102.619 25.6754 102.885 25.4887 103.24C25.3021 103.585 25.2087 104.015 25.2087 104.528C25.2087 105.041 25.3021 105.475 25.4887 105.83C25.6754 106.175 25.9227 106.441 26.2307 106.628C26.5387 106.815 26.8747 106.908 27.2387 106.908C27.6681 106.908 28.0414 106.801 28.3587 106.586C28.6761 106.371 28.8814 106.068 28.9747 105.676H30.5287C30.3701 106.423 29.9967 107.025 29.4087 107.482C28.8207 107.939 28.0974 108.168 27.2387 108.168ZM34.4902 108.168C33.9022 108.168 33.4169 108.07 33.0342 107.874C32.6515 107.678 32.3669 107.421 32.1802 107.104C31.9935 106.777 31.9002 106.423 31.9002 106.04C31.9002 105.368 32.1615 104.836 32.6842 104.444C33.2069 104.052 33.9535 103.856 34.9242 103.856H36.7442V103.73C36.7442 103.189 36.5949 102.783 36.2962 102.512C36.0069 102.241 35.6289 102.106 35.1622 102.106C34.7515 102.106 34.3922 102.209 34.0842 102.414C33.7855 102.61 33.6035 102.904 33.5382 103.296H32.0542C32.1009 102.792 32.2689 102.363 32.5582 102.008C32.8569 101.644 33.2302 101.369 33.6782 101.182C34.1355 100.986 34.6349 100.888 35.1762 100.888C36.1469 100.888 36.8982 101.145 37.4302 101.658C37.9622 102.162 38.2282 102.853 38.2282 103.73V108H36.9402L36.8142 106.81C36.6182 107.193 36.3335 107.515 35.9602 107.776C35.5869 108.037 35.0969 108.168 34.4902 108.168ZM34.7842 106.964C35.1855 106.964 35.5215 106.871 35.7922 106.684C36.0722 106.488 36.2869 106.231 36.4362 105.914C36.5949 105.597 36.6929 105.247 36.7302 104.864H35.0782C34.4902 104.864 34.0702 104.967 33.8182 105.172C33.5755 105.377 33.4542 105.634 33.4542 105.942C33.4542 106.259 33.5709 106.511 33.8042 106.698C34.0469 106.875 34.3735 106.964 34.7842 106.964ZM42.7305 108.168C41.8532 108.168 41.1298 107.953 40.5605 107.524C39.9912 107.095 39.6645 106.525 39.5805 105.816H41.0785C41.1532 106.133 41.3305 106.409 41.6105 106.642C41.8905 106.866 42.2592 106.978 42.7165 106.978C43.1645 106.978 43.4912 106.885 43.6965 106.698C43.9018 106.511 44.0045 106.297 44.0045 106.054C44.0045 105.699 43.8598 105.461 43.5705 105.34C43.2905 105.209 42.8985 105.093 42.3945 104.99C42.0025 104.906 41.6105 104.794 41.2185 104.654C40.8358 104.514 40.5138 104.318 40.2525 104.066C40.0005 103.805 39.8745 103.455 39.8745 103.016C39.8745 102.409 40.1078 101.905 40.5745 101.504C41.0412 101.093 41.6945 100.888 42.5345 100.888C43.3092 100.888 43.9345 101.075 44.4105 101.448C44.8958 101.821 45.1805 102.349 45.2645 103.03H43.8365C43.7898 102.731 43.6498 102.498 43.4165 102.33C43.1925 102.162 42.8892 102.078 42.5065 102.078C42.1332 102.078 41.8438 102.157 41.6385 102.316C41.4332 102.465 41.3305 102.661 41.3305 102.904C41.3305 103.147 41.4705 103.338 41.7505 103.478C42.0398 103.618 42.4178 103.744 42.8845 103.856C43.3512 103.959 43.7805 104.08 44.1725 104.22C44.5738 104.351 44.8958 104.547 45.1385 104.808C45.3812 105.069 45.5025 105.452 45.5025 105.956C45.5118 106.591 45.2645 107.118 44.7605 107.538C44.2658 107.958 43.5892 108.168 42.7305 108.168ZM49.4746 108.168C48.8866 108.168 48.4012 108.07 48.0186 107.874C47.6359 107.678 47.3512 107.421 47.1646 107.104C46.9779 106.777 46.8846 106.423 46.8846 106.04C46.8846 105.368 47.1459 104.836 47.6686 104.444C48.1912 104.052 48.9379 103.856 49.9086 103.856H51.7286V103.73C51.7286 103.189 51.5792 102.783 51.2806 102.512C50.9912 102.241 50.6132 102.106 50.1466 102.106C49.7359 102.106 49.3766 102.209 49.0686 102.414C48.7699 102.61 48.5879 102.904 48.5226 103.296H47.0386C47.0852 102.792 47.2532 102.363 47.5426 102.008C47.8412 101.644 48.2146 101.369 48.6626 101.182C49.1199 100.986 49.6192 100.888 50.1606 100.888C51.1312 100.888 51.8826 101.145 52.4146 101.658C52.9466 102.162 53.2126 102.853 53.2126 103.73V108H51.9246L51.7986 106.81C51.6026 107.193 51.3179 107.515 50.9446 107.776C50.5712 108.037 50.0812 108.168 49.4746 108.168ZM49.7686 106.964C50.1699 106.964 50.5059 106.871 50.7766 106.684C51.0566 106.488 51.2712 106.231 51.4206 105.914C51.5792 105.597 51.6772 105.247 51.7146 104.864H50.0626C49.4746 104.864 49.0546 104.967 48.8026 105.172C48.5599 105.377 48.4386 105.634 48.4386 105.942C48.4386 106.259 48.5552 106.511 48.7886 106.698C49.0312 106.875 49.3579 106.964 49.7686 106.964ZM57.7149 108.168C56.8375 108.168 56.1142 107.953 55.5449 107.524C54.9755 107.095 54.6489 106.525 54.5649 105.816H56.0629C56.1375 106.133 56.3149 106.409 56.5949 106.642C56.8749 106.866 57.2435 106.978 57.7009 106.978C58.1489 106.978 58.4755 106.885 58.6809 106.698C58.8862 106.511 58.9889 106.297 58.9889 106.054C58.9889 105.699 58.8442 105.461 58.5549 105.34C58.2749 105.209 57.8829 105.093 57.3789 104.99C56.9869 104.906 56.5949 104.794 56.2029 104.654C55.8202 104.514 55.4982 104.318 55.2369 104.066C54.9849 103.805 54.8589 103.455 54.8589 103.016C54.8589 102.409 55.0922 101.905 55.5589 101.504C56.0255 101.093 56.6789 100.888 57.5189 100.888C58.2935 100.888 58.9189 101.075 59.3949 101.448C59.8802 101.821 60.1649 102.349 60.2489 103.03H58.8209C58.7742 102.731 58.6342 102.498 58.4009 102.33C58.1769 102.162 57.8735 102.078 57.4909 102.078C57.1175 102.078 56.8282 102.157 56.6229 102.316C56.4175 102.465 56.3149 102.661 56.3149 102.904C56.3149 103.147 56.4549 103.338 56.7349 103.478C57.0242 103.618 57.4022 103.744 57.8689 103.856C58.3355 103.959 58.7649 104.08 59.1569 104.22C59.5582 104.351 59.8802 104.547 60.1229 104.808C60.3655 105.069 60.4869 105.452 60.4869 105.956C60.4962 106.591 60.2489 107.118 59.7449 107.538C59.2502 107.958 58.5735 108.168 57.7149 108.168ZM68.7983 108.168C68.1263 108.168 67.5336 108.009 67.0203 107.692C66.507 107.375 66.1056 106.941 65.8163 106.39C65.527 105.839 65.3823 105.214 65.3823 104.514C65.3823 103.814 65.527 103.193 65.8163 102.652C66.1056 102.101 66.507 101.672 67.0203 101.364C67.543 101.047 68.1403 100.888 68.8123 100.888C69.363 100.888 69.8436 100.995 70.2543 101.21C70.6743 101.425 71.001 101.728 71.2343 102.12V97.92H72.7183V108H71.3883L71.2343 106.922C71.0103 107.249 70.7023 107.538 70.3103 107.79C69.9183 108.042 69.4143 108.168 68.7983 108.168ZM69.0643 106.88C69.699 106.88 70.217 106.661 70.6183 106.222C71.029 105.783 71.2343 105.219 71.2343 104.528C71.2343 103.828 71.029 103.263 70.6183 102.834C70.217 102.395 69.699 102.176 69.0643 102.176C68.4296 102.176 67.907 102.395 67.4963 102.834C67.0856 103.263 66.8803 103.828 66.8803 104.528C66.8803 104.985 66.9736 105.391 67.1603 105.746C67.347 106.101 67.6036 106.381 67.9303 106.586C68.2663 106.782 68.6443 106.88 69.0643 106.88ZM77.8374 108.168C77.156 108.168 76.5494 108.019 76.0174 107.72C75.4947 107.412 75.084 106.987 74.7854 106.446C74.4867 105.905 74.3374 105.275 74.3374 104.556C74.3374 103.828 74.482 103.189 74.7714 102.638C75.07 102.087 75.4807 101.658 76.0034 101.35C76.5354 101.042 77.1514 100.888 77.8514 100.888C78.5327 100.888 79.1254 101.042 79.6294 101.35C80.1334 101.649 80.5254 102.05 80.8054 102.554C81.0854 103.058 81.2254 103.613 81.2254 104.22C81.2254 104.313 81.2207 104.416 81.2114 104.528C81.2114 104.631 81.2067 104.747 81.1974 104.878H75.7934C75.84 105.55 76.0594 106.063 76.4514 106.418C76.8527 106.763 77.3147 106.936 77.8374 106.936C78.2574 106.936 78.6074 106.843 78.8874 106.656C79.1767 106.46 79.3914 106.199 79.5314 105.872H81.0154C80.8287 106.525 80.4554 107.071 79.8954 107.51C79.3447 107.949 78.6587 108.168 77.8374 108.168ZM77.8374 102.106C77.3427 102.106 76.904 102.255 76.5214 102.554C76.1387 102.843 75.9054 103.282 75.8214 103.87H79.7414C79.7134 103.329 79.522 102.899 79.1674 102.582C78.8127 102.265 78.3694 102.106 77.8374 102.106ZM89.5825 108.168C88.9012 108.168 88.2898 108.014 87.7485 107.706C87.2165 107.398 86.7965 106.973 86.4885 106.432C86.1898 105.881 86.0405 105.247 86.0405 104.528C86.0405 103.809 86.1898 103.179 86.4885 102.638C86.7965 102.087 87.2165 101.658 87.7485 101.35C88.2898 101.042 88.9012 100.888 89.5825 100.888C90.4412 100.888 91.1598 101.112 91.7385 101.56C92.3265 102.008 92.7045 102.615 92.8725 103.38H91.3185C91.2252 102.997 91.0198 102.699 90.7025 102.484C90.3852 102.269 90.0118 102.162 89.5825 102.162C89.2185 102.162 88.8825 102.255 88.5745 102.442C88.2665 102.619 88.0192 102.885 87.8325 103.24C87.6458 103.585 87.5525 104.015 87.5525 104.528C87.5525 105.041 87.6458 105.475 87.8325 105.83C88.0192 106.175 88.2665 106.441 88.5745 106.628C88.8825 106.815 89.2185 106.908 89.5825 106.908C90.0118 106.908 90.3852 106.801 90.7025 106.586C91.0198 106.371 91.2252 106.068 91.3185 105.676H92.8725C92.7138 106.423 92.3405 107.025 91.7525 107.482C91.1645 107.939 90.4412 108.168 89.5825 108.168ZM96.8339 108.168C96.2459 108.168 95.7606 108.07 95.3779 107.874C94.9953 107.678 94.7106 107.421 94.5239 107.104C94.3373 106.777 94.2439 106.423 94.2439 106.04C94.2439 105.368 94.5053 104.836 95.0279 104.444C95.5506 104.052 96.2973 103.856 97.2679 103.856H99.0879V103.73C99.0879 103.189 98.9386 102.783 98.6399 102.512C98.3506 102.241 97.9726 102.106 97.5059 102.106C97.0953 102.106 96.7359 102.209 96.4279 102.414C96.1293 102.61 95.9473 102.904 95.8819 103.296H94.3979C94.4446 102.792 94.6126 102.363 94.9019 102.008C95.2006 101.644 95.5739 101.369 96.0219 101.182C96.4793 100.986 96.9786 100.888 97.5199 100.888C98.4906 100.888 99.2419 101.145 99.7739 101.658C100.306 102.162 100.572 102.853 100.572 103.73V108H99.2839L99.1579 106.81C98.9619 107.193 98.6773 107.515 98.3039 107.776C97.9306 108.037 97.4406 108.168 96.8339 108.168ZM97.1279 106.964C97.5293 106.964 97.8653 106.871 98.1359 106.684C98.4159 106.488 98.6306 106.231 98.7799 105.914C98.9386 105.597 99.0366 105.247 99.0739 104.864H97.4219C96.8339 104.864 96.4139 104.967 96.1619 105.172C95.9193 105.377 95.7979 105.634 95.7979 105.942C95.7979 106.259 95.9146 106.511 96.1479 106.698C96.3906 106.875 96.7173 106.964 97.1279 106.964ZM102.302 108V101.056H103.618L103.744 102.036C103.968 101.681 104.262 101.401 104.626 101.196C105 100.991 105.429 100.888 105.914 100.888C107.016 100.888 107.781 101.322 108.21 102.19C108.462 101.789 108.798 101.471 109.218 101.238C109.648 101.005 110.11 100.888 110.604 100.888C111.472 100.888 112.154 101.149 112.648 101.672C113.143 102.195 113.39 102.974 113.39 104.01V108H111.906V104.164C111.906 102.82 111.393 102.148 110.366 102.148C109.844 102.148 109.414 102.344 109.078 102.736C108.752 103.128 108.588 103.688 108.588 104.416V108H107.104V104.164C107.104 102.82 106.586 102.148 105.55 102.148C105.037 102.148 104.612 102.344 104.276 102.736C103.95 103.128 103.786 103.688 103.786 104.416V108H102.302ZM119.032 108.168C118.491 108.168 118.01 108.061 117.59 107.846C117.18 107.631 116.853 107.328 116.61 106.936L116.456 108H115.126V97.92H116.61V102.134C116.834 101.807 117.142 101.518 117.534 101.266C117.926 101.014 118.43 100.888 119.046 100.888C119.718 100.888 120.311 101.047 120.824 101.364C121.338 101.681 121.739 102.115 122.028 102.666C122.327 103.217 122.476 103.842 122.476 104.542C122.476 105.242 122.327 105.867 122.028 106.418C121.739 106.959 121.338 107.389 120.824 107.706C120.311 108.014 119.714 108.168 119.032 108.168ZM118.78 106.88C119.415 106.88 119.938 106.665 120.348 106.236C120.759 105.797 120.964 105.228 120.964 104.528C120.964 104.071 120.871 103.665 120.684 103.31C120.498 102.955 120.241 102.68 119.914 102.484C119.588 102.279 119.21 102.176 118.78 102.176C118.146 102.176 117.623 102.395 117.212 102.834C116.811 103.273 116.61 103.837 116.61 104.528C116.61 105.228 116.811 105.797 117.212 106.236C117.623 106.665 118.146 106.88 118.78 106.88ZM124.922 99.74C124.642 99.74 124.408 99.656 124.222 99.488C124.044 99.3107 123.956 99.0913 123.956 98.83C123.956 98.5687 124.044 98.354 124.222 98.186C124.408 98.0087 124.642 97.92 124.922 97.92C125.202 97.92 125.43 98.0087 125.608 98.186C125.794 98.354 125.888 98.5687 125.888 98.83C125.888 99.0913 125.794 99.3107 125.608 99.488C125.43 99.656 125.202 99.74 124.922 99.74ZM124.18 108V101.056H125.664V108H124.18ZM130.871 108.168C130.208 108.168 129.611 108.019 129.079 107.72C128.556 107.412 128.141 106.987 127.833 106.446C127.525 105.895 127.371 105.256 127.371 104.528C127.371 103.8 127.525 103.165 127.833 102.624C128.15 102.073 128.575 101.649 129.107 101.35C129.639 101.042 130.231 100.888 130.885 100.888C131.547 100.888 132.14 101.042 132.663 101.35C133.195 101.649 133.615 102.073 133.923 102.624C134.24 103.165 134.399 103.8 134.399 104.528C134.399 105.256 134.24 105.895 133.923 106.446C133.615 106.987 133.195 107.412 132.663 107.72C132.131 108.019 131.533 108.168 130.871 108.168ZM130.871 106.894C131.225 106.894 131.552 106.805 131.851 106.628C132.159 106.451 132.406 106.189 132.593 105.844C132.779 105.489 132.873 105.051 132.873 104.528C132.873 104.005 132.779 103.571 132.593 103.226C132.415 102.871 132.173 102.605 131.865 102.428C131.566 102.251 131.239 102.162 130.885 102.162C130.53 102.162 130.199 102.251 129.891 102.428C129.592 102.605 129.349 102.871 129.163 103.226C128.976 103.571 128.883 104.005 128.883 104.528C128.883 105.051 128.976 105.489 129.163 105.844C129.349 106.189 129.592 106.451 129.891 106.628C130.189 106.805 130.516 106.894 130.871 106.894ZM140.343 111.08L142.009 107.426H141.603L138.859 101.056H140.469L142.597 106.194L144.823 101.056H146.391L141.911 111.08H140.343ZM151.138 108V97.92H152.622V108H151.138ZM156.853 108.168C156.265 108.168 155.78 108.07 155.397 107.874C155.015 107.678 154.73 107.421 154.543 107.104C154.357 106.777 154.263 106.423 154.263 106.04C154.263 105.368 154.525 104.836 155.047 104.444C155.57 104.052 156.317 103.856 157.287 103.856H159.107V103.73C159.107 103.189 158.958 102.783 158.659 102.512C158.37 102.241 157.992 102.106 157.525 102.106C157.115 102.106 156.755 102.209 156.447 102.414C156.149 102.61 155.967 102.904 155.901 103.296H154.417C154.464 102.792 154.632 102.363 154.921 102.008C155.22 101.644 155.593 101.369 156.041 101.182C156.499 100.986 156.998 100.888 157.539 100.888C158.51 100.888 159.261 101.145 159.793 101.658C160.325 102.162 160.591 102.853 160.591 103.73V108H159.303L159.177 106.81C158.981 107.193 158.697 107.515 158.323 107.776C157.95 108.037 157.46 108.168 156.853 108.168ZM157.147 106.964C157.549 106.964 157.885 106.871 158.155 106.684C158.435 106.488 158.65 106.231 158.799 105.914C158.958 105.597 159.056 105.247 159.093 104.864H157.441C156.853 104.864 156.433 104.967 156.181 105.172C155.939 105.377 155.817 105.634 155.817 105.942C155.817 106.259 155.934 106.511 156.167 106.698C156.41 106.875 156.737 106.964 157.147 106.964ZM165.094 108.168C164.216 108.168 163.493 107.953 162.924 107.524C162.354 107.095 162.028 106.525 161.944 105.816H163.442C163.516 106.133 163.694 106.409 163.974 106.642C164.254 106.866 164.622 106.978 165.08 106.978C165.528 106.978 165.854 106.885 166.06 106.698C166.265 106.511 166.368 106.297 166.368 106.054C166.368 105.699 166.223 105.461 165.934 105.34C165.654 105.209 165.262 105.093 164.758 104.99C164.366 104.906 163.974 104.794 163.582 104.654C163.199 104.514 162.877 104.318 162.616 104.066C162.364 103.805 162.238 103.455 162.238 103.016C162.238 102.409 162.471 101.905 162.938 101.504C163.404 101.093 164.058 100.888 164.898 100.888C165.672 100.888 166.298 101.075 166.774 101.448C167.259 101.821 167.544 102.349 167.628 103.03H166.2C166.153 102.731 166.013 102.498 165.78 102.33C165.556 102.162 165.252 102.078 164.87 102.078C164.496 102.078 164.207 102.157 164.002 102.316C163.796 102.465 163.694 102.661 163.694 102.904C163.694 103.147 163.834 103.338 164.114 103.478C164.403 103.618 164.781 103.744 165.248 103.856C165.714 103.959 166.144 104.08 166.536 104.22C166.937 104.351 167.259 104.547 167.502 104.808C167.744 105.069 167.866 105.452 167.866 105.956C167.875 106.591 167.628 107.118 167.124 107.538C166.629 107.958 165.952 108.168 165.094 108.168ZM173.013 108V101.056H174.329L174.455 102.036C174.679 101.681 174.973 101.401 175.337 101.196C175.711 100.991 176.14 100.888 176.625 100.888C177.727 100.888 178.492 101.322 178.921 102.19C179.173 101.789 179.509 101.471 179.929 101.238C180.359 101.005 180.821 100.888 181.315 100.888C182.183 100.888 182.865 101.149 183.359 101.672C183.854 102.195 184.101 102.974 184.101 104.01V108H182.617V104.164C182.617 102.82 182.104 102.148 181.077 102.148C180.555 102.148 180.125 102.344 179.789 102.736C179.463 103.128 179.299 103.688 179.299 104.416V108H177.815V104.164C177.815 102.82 177.297 102.148 176.261 102.148C175.748 102.148 175.323 102.344 174.987 102.736C174.661 103.128 174.497 103.688 174.497 104.416V108H173.013ZM189.085 108.168C188.423 108.168 187.825 108.019 187.293 107.72C186.771 107.412 186.355 106.987 186.047 106.446C185.739 105.895 185.585 105.256 185.585 104.528C185.585 103.8 185.739 103.165 186.047 102.624C186.365 102.073 186.789 101.649 187.321 101.35C187.853 101.042 188.446 100.888 189.099 100.888C189.762 100.888 190.355 101.042 190.877 101.35C191.409 101.649 191.829 102.073 192.137 102.624C192.455 103.165 192.613 103.8 192.613 104.528C192.613 105.256 192.455 105.895 192.137 106.446C191.829 106.987 191.409 107.412 190.877 107.72C190.345 108.019 189.748 108.168 189.085 108.168ZM189.085 106.894C189.44 106.894 189.767 106.805 190.065 106.628C190.373 106.451 190.621 106.189 190.807 105.844C190.994 105.489 191.087 105.051 191.087 104.528C191.087 104.005 190.994 103.571 190.807 103.226C190.63 102.871 190.387 102.605 190.079 102.428C189.781 102.251 189.454 102.162 189.099 102.162C188.745 102.162 188.413 102.251 188.105 102.428C187.807 102.605 187.564 102.871 187.377 103.226C187.191 103.571 187.097 104.005 187.097 104.528C187.097 105.051 187.191 105.489 187.377 105.844C187.564 106.189 187.807 106.451 188.105 106.628C188.404 106.805 188.731 106.894 189.085 106.894ZM194.218 108V101.056H195.534L195.646 102.274C195.861 101.845 196.174 101.509 196.584 101.266C197.004 101.014 197.485 100.888 198.026 100.888C198.866 100.888 199.524 101.149 200 101.672C200.486 102.195 200.728 102.974 200.728 104.01V108H199.258V104.164C199.258 102.82 198.708 102.148 197.606 102.148C197.056 102.148 196.598 102.344 196.234 102.736C195.88 103.128 195.702 103.688 195.702 104.416V108H194.218ZM205.724 108.168C205.043 108.168 204.436 108.019 203.904 107.72C203.381 107.412 202.971 106.987 202.672 106.446C202.373 105.905 202.224 105.275 202.224 104.556C202.224 103.828 202.369 103.189 202.658 102.638C202.957 102.087 203.367 101.658 203.89 101.35C204.422 101.042 205.038 100.888 205.738 100.888C206.419 100.888 207.012 101.042 207.516 101.35C208.02 101.649 208.412 102.05 208.692 102.554C208.972 103.058 209.112 103.613 209.112 104.22C209.112 104.313 209.107 104.416 209.098 104.528C209.098 104.631 209.093 104.747 209.084 104.878H203.68C203.727 105.55 203.946 106.063 204.338 106.418C204.739 106.763 205.201 106.936 205.724 106.936C206.144 106.936 206.494 106.843 206.774 106.656C207.063 106.46 207.278 106.199 207.418 105.872H208.902C208.715 106.525 208.342 107.071 207.782 107.51C207.231 107.949 206.545 108.168 205.724 108.168ZM205.724 102.106C205.229 102.106 204.791 102.255 204.408 102.554C204.025 102.843 203.792 103.282 203.708 103.87H207.628C207.6 103.329 207.409 102.899 207.054 102.582C206.699 102.265 206.256 102.106 205.724 102.106ZM213.816 108.168C213.144 108.168 212.551 108.009 212.038 107.692C211.525 107.375 211.123 106.941 210.834 106.39C210.545 105.839 210.4 105.214 210.4 104.514C210.4 103.814 210.545 103.193 210.834 102.652C211.123 102.101 211.525 101.672 212.038 101.364C212.561 101.047 213.158 100.888 213.83 100.888C214.381 100.888 214.861 100.995 215.272 101.21C215.692 101.425 216.019 101.728 216.252 102.12V97.92H217.736V108H216.406L216.252 106.922C216.028 107.249 215.72 107.538 215.328 107.79C214.936 108.042 214.432 108.168 213.816 108.168ZM214.082 106.88C214.717 106.88 215.235 106.661 215.636 106.222C216.047 105.783 216.252 105.219 216.252 104.528C216.252 103.828 216.047 103.263 215.636 102.834C215.235 102.395 214.717 102.176 214.082 102.176C213.447 102.176 212.925 102.395 212.514 102.834C212.103 103.263 211.898 103.828 211.898 104.528C211.898 104.985 211.991 105.391 212.178 105.746C212.365 106.101 212.621 106.381 212.948 106.586C213.284 106.782 213.662 106.88 214.082 106.88ZM221.959 108.168C221.371 108.168 220.886 108.07 220.503 107.874C220.12 107.678 219.836 107.421 219.649 107.104C219.462 106.777 219.369 106.423 219.369 106.04C219.369 105.368 219.63 104.836 220.153 104.444C220.676 104.052 221.422 103.856 222.393 103.856H224.213V103.73C224.213 103.189 224.064 102.783 223.765 102.512C223.476 102.241 223.098 102.106 222.631 102.106C222.22 102.106 221.861 102.209 221.553 102.414C221.254 102.61 221.072 102.904 221.007 103.296H219.523C219.57 102.792 219.738 102.363 220.027 102.008C220.326 101.644 220.699 101.369 221.147 101.182C221.604 100.986 222.104 100.888 222.645 100.888C223.616 100.888 224.367 101.145 224.899 101.658C225.431 102.162 225.697 102.853 225.697 103.73V108H224.409L224.283 106.81C224.087 107.193 223.802 107.515 223.429 107.776C223.056 108.037 222.566 108.168 221.959 108.168ZM222.253 106.964C222.654 106.964 222.99 106.871 223.261 106.684C223.541 106.488 223.756 106.231 223.905 105.914C224.064 105.597 224.162 105.247 224.199 104.864H222.547C221.959 104.864 221.539 104.967 221.287 105.172C221.044 105.377 220.923 105.634 220.923 105.942C220.923 106.259 221.04 106.511 221.273 106.698C221.516 106.875 221.842 106.964 222.253 106.964ZM230.199 108.168C229.322 108.168 228.599 107.953 228.029 107.524C227.46 107.095 227.133 106.525 227.049 105.816H228.547C228.622 106.133 228.799 106.409 229.079 106.642C229.359 106.866 229.728 106.978 230.185 106.978C230.633 106.978 230.96 106.885 231.165 106.698C231.371 106.511 231.473 106.297 231.473 106.054C231.473 105.699 231.329 105.461 231.039 105.34C230.759 105.209 230.367 105.093 229.863 104.99C229.471 104.906 229.079 104.794 228.687 104.654C228.305 104.514 227.983 104.318 227.721 104.066C227.469 103.805 227.343 103.455 227.343 103.016C227.343 102.409 227.577 101.905 228.043 101.504C228.51 101.093 229.163 100.888 230.003 100.888C230.778 100.888 231.403 101.075 231.879 101.448C232.365 101.821 232.649 102.349 232.733 103.03H231.305C231.259 102.731 231.119 102.498 230.885 102.33C230.661 102.162 230.358 102.078 229.975 102.078C229.602 102.078 229.313 102.157 229.107 102.316C228.902 102.465 228.799 102.661 228.799 102.904C228.799 103.147 228.939 103.338 229.219 103.478C229.509 103.618 229.887 103.744 230.353 103.856C230.82 103.959 231.249 104.08 231.641 104.22C232.043 104.351 232.365 104.547 232.607 104.808C232.85 105.069 232.971 105.452 232.971 105.956C232.981 106.591 232.733 107.118 232.229 107.538C231.735 107.958 231.058 108.168 230.199 108.168ZM238.119 108V101.056H239.435L239.561 102.036C239.785 101.681 240.079 101.401 240.443 101.196C240.816 100.991 241.245 100.888 241.731 100.888C242.832 100.888 243.597 101.322 244.027 102.19C244.279 101.789 244.615 101.471 245.035 101.238C245.464 101.005 245.926 100.888 246.421 100.888C247.289 100.888 247.97 101.149 248.465 101.672C248.959 102.195 249.207 102.974 249.207 104.01V108H247.723V104.164C247.723 102.82 247.209 102.148 246.183 102.148C245.66 102.148 245.231 102.344 244.895 102.736C244.568 103.128 244.405 103.688 244.405 104.416V108H242.921V104.164C242.921 102.82 242.403 102.148 241.367 102.148C240.853 102.148 240.429 102.344 240.093 102.736C239.766 103.128 239.603 103.688 239.603 104.416V108H238.119ZM253.295 108.168C252.707 108.168 252.222 108.07 251.839 107.874C251.456 107.678 251.172 107.421 250.985 107.104C250.798 106.777 250.705 106.423 250.705 106.04C250.705 105.368 250.966 104.836 251.489 104.444C252.012 104.052 252.758 103.856 253.729 103.856H255.549V103.73C255.549 103.189 255.4 102.783 255.101 102.512C254.812 102.241 254.434 102.106 253.967 102.106C253.556 102.106 253.197 102.209 252.889 102.414C252.59 102.61 252.408 102.904 252.343 103.296H250.859C250.906 102.792 251.074 102.363 251.363 102.008C251.662 101.644 252.035 101.369 252.483 101.182C252.94 100.986 253.44 100.888 253.981 100.888C254.952 100.888 255.703 101.145 256.235 101.658C256.767 102.162 257.033 102.853 257.033 103.73V108H255.745L255.619 106.81C255.423 107.193 255.138 107.515 254.765 107.776C254.392 108.037 253.902 108.168 253.295 108.168ZM253.589 106.964C253.99 106.964 254.326 106.871 254.597 106.684C254.877 106.488 255.092 106.231 255.241 105.914C255.4 105.597 255.498 105.247 255.535 104.864H253.883C253.295 104.864 252.875 104.967 252.623 105.172C252.38 105.377 252.259 105.634 252.259 105.942C252.259 106.259 252.376 106.511 252.609 106.698C252.852 106.875 253.178 106.964 253.589 106.964ZM253.533 100.482V99.418L256.585 97.682V98.914L253.533 100.482ZM261.535 108.168C260.658 108.168 259.935 107.953 259.365 107.524C258.796 107.095 258.469 106.525 258.385 105.816H259.883C259.958 106.133 260.135 106.409 260.415 106.642C260.695 106.866 261.064 106.978 261.521 106.978C261.969 106.978 262.296 106.885 262.501 106.698C262.707 106.511 262.809 106.297 262.809 106.054C262.809 105.699 262.665 105.461 262.375 105.34C262.095 105.209 261.703 105.093 261.199 104.99C260.807 104.906 260.415 104.794 260.023 104.654C259.641 104.514 259.319 104.318 259.057 104.066C258.805 103.805 258.679 103.455 258.679 103.016C258.679 102.409 258.913 101.905 259.379 101.504C259.846 101.093 260.499 100.888 261.339 100.888C262.114 100.888 262.739 101.075 263.215 101.448C263.701 101.821 263.985 102.349 264.069 103.03H262.641C262.595 102.731 262.455 102.498 262.221 102.33C261.997 102.162 261.694 102.078 261.311 102.078C260.938 102.078 260.649 102.157 260.443 102.316C260.238 102.465 260.135 102.661 260.135 102.904C260.135 103.147 260.275 103.338 260.555 103.478C260.845 103.618 261.223 103.744 261.689 103.856C262.156 103.959 262.585 104.08 262.977 104.22C263.379 104.351 263.701 104.547 263.943 104.808C264.186 105.069 264.307 105.452 264.307 105.956C264.317 106.591 264.069 107.118 263.565 107.538C263.071 107.958 262.394 108.168 261.535 108.168ZM66.3581 117.74C66.0781 117.74 65.8447 117.656 65.6581 117.488C65.4807 117.311 65.3921 117.091 65.3921 116.83C65.3921 116.569 65.4807 116.354 65.6581 116.186C65.8447 116.009 66.0781 115.92 66.3581 115.92C66.6381 115.92 66.8667 116.009 67.0441 116.186C67.2307 116.354 67.3241 116.569 67.3241 116.83C67.3241 117.091 67.2307 117.311 67.0441 117.488C66.8667 117.656 66.6381 117.74 66.3581 117.74ZM65.6161 126V119.056H67.1001V126H65.6161ZM69.0591 126V119.056H70.3751L70.5011 120.036C70.7251 119.681 71.0191 119.401 71.3831 119.196C71.7564 118.991 72.1858 118.888 72.6711 118.888C73.7724 118.888 74.5378 119.322 74.9671 120.19C75.2191 119.789 75.5551 119.471 75.9751 119.238C76.4044 119.005 76.8664 118.888 77.3611 118.888C78.2291 118.888 78.9104 119.149 79.4051 119.672C79.8998 120.195 80.1471 120.974 80.1471 122.01V126H78.6631V122.164C78.6631 120.82 78.1498 120.148 77.1231 120.148C76.6004 120.148 76.1711 120.344 75.8351 120.736C75.5084 121.128 75.3451 121.688 75.3451 122.416V126H73.8611V122.164C73.8611 120.82 73.3431 120.148 72.3071 120.148C71.7938 120.148 71.3691 120.344 71.0331 120.736C70.7064 121.128 70.5431 121.688 70.5431 122.416V126H69.0591ZM81.8833 129.08V119.056H83.2133L83.3673 120.134C83.5913 119.807 83.8993 119.518 84.2913 119.266C84.6833 119.014 85.1873 118.888 85.8033 118.888C86.4753 118.888 87.068 119.047 87.5813 119.364C88.0946 119.681 88.496 120.115 88.7853 120.666C89.084 121.217 89.2333 121.842 89.2333 122.542C89.2333 123.242 89.084 123.867 88.7853 124.418C88.496 124.959 88.0946 125.389 87.5813 125.706C87.068 126.014 86.4706 126.168 85.7893 126.168C85.248 126.168 84.7673 126.061 84.3473 125.846C83.9366 125.631 83.61 125.328 83.3673 124.936V129.08H81.8833ZM85.5373 124.88C86.172 124.88 86.6946 124.665 87.1053 124.236C87.516 123.797 87.7213 123.228 87.7213 122.528C87.7213 122.071 87.628 121.665 87.4413 121.31C87.2546 120.955 86.998 120.68 86.6713 120.484C86.3446 120.279 85.9666 120.176 85.5373 120.176C84.9026 120.176 84.38 120.395 83.9693 120.834C83.568 121.273 83.3673 121.837 83.3673 122.528C83.3673 123.228 83.568 123.797 83.9693 124.236C84.38 124.665 84.9026 124.88 85.5373 124.88ZM94.0864 126.168C93.4237 126.168 92.8264 126.019 92.2944 125.72C91.7717 125.412 91.3564 124.987 91.0484 124.446C90.7404 123.895 90.5864 123.256 90.5864 122.528C90.5864 121.8 90.7404 121.165 91.0484 120.624C91.3657 120.073 91.7904 119.649 92.3224 119.35C92.8544 119.042 93.4471 118.888 94.1004 118.888C94.7631 118.888 95.3557 119.042 95.8784 119.35C96.4104 119.649 96.8304 120.073 97.1384 120.624C97.4557 121.165 97.6144 121.8 97.6144 122.528C97.6144 123.256 97.4557 123.895 97.1384 124.446C96.8304 124.987 96.4104 125.412 95.8784 125.72C95.3464 126.019 94.7491 126.168 94.0864 126.168ZM94.0864 124.894C94.4411 124.894 94.7677 124.805 95.0664 124.628C95.3744 124.451 95.6217 124.189 95.8084 123.844C95.9951 123.489 96.0884 123.051 96.0884 122.528C96.0884 122.005 95.9951 121.571 95.8084 121.226C95.6311 120.871 95.3884 120.605 95.0804 120.428C94.7817 120.251 94.4551 120.162 94.1004 120.162C93.7457 120.162 93.4144 120.251 93.1064 120.428C92.8077 120.605 92.5651 120.871 92.3784 121.226C92.1917 121.571 92.0984 122.005 92.0984 122.528C92.0984 123.051 92.1917 123.489 92.3784 123.844C92.5651 124.189 92.8077 124.451 93.1064 124.628C93.4051 124.805 93.7317 124.894 94.0864 124.894ZM99.2193 126V119.056H100.549L100.675 120.372C100.918 119.915 101.254 119.555 101.683 119.294C102.122 119.023 102.649 118.888 103.265 118.888V120.442H102.859C102.449 120.442 102.08 120.512 101.753 120.652C101.436 120.783 101.179 121.011 100.983 121.338C100.797 121.655 100.703 122.099 100.703 122.668V126H99.2193ZM107.45 126C106.768 126 106.227 125.837 105.826 125.51C105.424 125.174 105.224 124.581 105.224 123.732V120.302H104.034V119.056H105.224L105.406 117.292H106.708V119.056H108.668V120.302H106.708V123.732C106.708 124.115 106.787 124.381 106.946 124.53C107.114 124.67 107.398 124.74 107.8 124.74H108.598V126H107.45ZM112.55 126.168C111.962 126.168 111.476 126.07 111.094 125.874C110.711 125.678 110.426 125.421 110.24 125.104C110.053 124.777 109.96 124.423 109.96 124.04C109.96 123.368 110.221 122.836 110.744 122.444C111.266 122.052 112.013 121.856 112.984 121.856H114.804V121.73C114.804 121.189 114.654 120.783 114.356 120.512C114.066 120.241 113.688 120.106 113.222 120.106C112.811 120.106 112.452 120.209 112.144 120.414C111.845 120.61 111.663 120.904 111.598 121.296H110.114C110.16 120.792 110.328 120.363 110.618 120.008C110.916 119.644 111.29 119.369 111.738 119.182C112.195 118.986 112.694 118.888 113.236 118.888C114.206 118.888 114.958 119.145 115.49 119.658C116.022 120.162 116.288 120.853 116.288 121.73V126H115L114.874 124.81C114.678 125.193 114.393 125.515 114.02 125.776C113.646 126.037 113.156 126.168 112.55 126.168ZM112.844 124.964C113.245 124.964 113.581 124.871 113.852 124.684C114.132 124.488 114.346 124.231 114.496 123.914C114.654 123.597 114.752 123.247 114.79 122.864H113.138C112.55 122.864 112.13 122.967 111.878 123.172C111.635 123.377 111.514 123.634 111.514 123.942C111.514 124.259 111.63 124.511 111.864 124.698C112.106 124.875 112.433 124.964 112.844 124.964ZM118.018 126V119.056H119.334L119.446 120.274C119.661 119.845 119.973 119.509 120.384 119.266C120.804 119.014 121.285 118.888 121.826 118.888C122.666 118.888 123.324 119.149 123.8 119.672C124.285 120.195 124.528 120.974 124.528 122.01V126H123.058V122.164C123.058 120.82 122.507 120.148 121.406 120.148C120.855 120.148 120.398 120.344 120.034 120.736C119.679 121.128 119.502 121.688 119.502 122.416V126H118.018ZM129.188 126C128.507 126 127.965 125.837 127.564 125.51C127.163 125.174 126.962 124.581 126.962 123.732V120.302H125.772V119.056H126.962L127.144 117.292H128.446V119.056H130.406V120.302H128.446V123.732C128.446 124.115 128.525 124.381 128.684 124.53C128.852 124.67 129.137 124.74 129.538 124.74H130.336V126H129.188ZM135.006 126.168C134.325 126.168 133.718 126.019 133.186 125.72C132.664 125.412 132.253 124.987 131.954 124.446C131.656 123.905 131.506 123.275 131.506 122.556C131.506 121.828 131.651 121.189 131.94 120.638C132.239 120.087 132.65 119.658 133.172 119.35C133.704 119.042 134.32 118.888 135.02 118.888C135.702 118.888 136.294 119.042 136.798 119.35C137.302 119.649 137.694 120.05 137.974 120.554C138.254 121.058 138.394 121.613 138.394 122.22C138.394 122.313 138.39 122.416 138.38 122.528C138.38 122.631 138.376 122.747 138.366 122.878H132.962C133.009 123.55 133.228 124.063 133.62 124.418C134.022 124.763 134.484 124.936 135.006 124.936C135.426 124.936 135.776 124.843 136.056 124.656C136.346 124.46 136.56 124.199 136.7 123.872H138.184C137.998 124.525 137.624 125.071 137.064 125.51C136.514 125.949 135.828 126.168 135.006 126.168ZM135.006 120.106C134.512 120.106 134.073 120.255 133.69 120.554C133.308 120.843 133.074 121.282 132.99 121.87H136.91C136.882 121.329 136.691 120.899 136.336 120.582C135.982 120.265 135.538 120.106 135.006 120.106ZM142.706 126.168C141.829 126.168 141.105 125.953 140.536 125.524C139.967 125.095 139.64 124.525 139.556 123.816H141.054C141.129 124.133 141.306 124.409 141.586 124.642C141.866 124.866 142.235 124.978 142.692 124.978C143.14 124.978 143.467 124.885 143.672 124.698C143.877 124.511 143.98 124.297 143.98 124.054C143.98 123.699 143.835 123.461 143.546 123.34C143.266 123.209 142.874 123.093 142.37 122.99C141.978 122.906 141.586 122.794 141.194 122.654C140.811 122.514 140.489 122.318 140.228 122.066C139.976 121.805 139.85 121.455 139.85 121.016C139.85 120.409 140.083 119.905 140.55 119.504C141.017 119.093 141.67 118.888 142.51 118.888C143.285 118.888 143.91 119.075 144.386 119.448C144.871 119.821 145.156 120.349 145.24 121.03H143.812C143.765 120.731 143.625 120.498 143.392 120.33C143.168 120.162 142.865 120.078 142.482 120.078C142.109 120.078 141.819 120.157 141.614 120.316C141.409 120.465 141.306 120.661 141.306 120.904C141.306 121.147 141.446 121.338 141.726 121.478C142.015 121.618 142.393 121.744 142.86 121.856C143.327 121.959 143.756 122.08 144.148 122.22C144.549 122.351 144.871 122.547 145.114 122.808C145.357 123.069 145.478 123.452 145.478 123.956C145.487 124.591 145.24 125.118 144.736 125.538C144.241 125.958 143.565 126.168 142.706 126.168ZM153.79 126.168C153.118 126.168 152.525 126.009 152.012 125.692C151.498 125.375 151.097 124.941 150.808 124.39C150.518 123.839 150.374 123.214 150.374 122.514C150.374 121.814 150.518 121.193 150.808 120.652C151.097 120.101 151.498 119.672 152.012 119.364C152.534 119.047 153.132 118.888 153.803 118.888C154.354 118.888 154.835 118.995 155.246 119.21C155.666 119.425 155.992 119.728 156.226 120.12V115.92H157.71V126H156.38L156.226 124.922C156.002 125.249 155.694 125.538 155.302 125.79C154.91 126.042 154.406 126.168 153.79 126.168ZM154.056 124.88C154.69 124.88 155.208 124.661 155.61 124.222C156.02 123.783 156.226 123.219 156.226 122.528C156.226 121.828 156.02 121.263 155.61 120.834C155.208 120.395 154.69 120.176 154.056 120.176C153.421 120.176 152.898 120.395 152.488 120.834C152.077 121.263 151.872 121.828 151.872 122.528C151.872 122.985 151.965 123.391 152.152 123.746C152.338 124.101 152.595 124.381 152.922 124.586C153.258 124.782 153.636 124.88 154.056 124.88ZM162.829 126.168C162.147 126.168 161.541 126.019 161.009 125.72C160.486 125.412 160.075 124.987 159.777 124.446C159.478 123.905 159.329 123.275 159.329 122.556C159.329 121.828 159.473 121.189 159.763 120.638C160.061 120.087 160.472 119.658 160.995 119.35C161.527 119.042 162.143 118.888 162.843 118.888C163.524 118.888 164.117 119.042 164.621 119.35C165.125 119.649 165.517 120.05 165.797 120.554C166.077 121.058 166.217 121.613 166.217 122.22C166.217 122.313 166.212 122.416 166.203 122.528C166.203 122.631 166.198 122.747 166.189 122.878H160.785C160.831 123.55 161.051 124.063 161.443 124.418C161.844 124.763 162.306 124.936 162.829 124.936C163.249 124.936 163.599 124.843 163.879 124.656C164.168 124.46 164.383 124.199 164.523 123.872H166.007C165.82 124.525 165.447 125.071 164.887 125.51C164.336 125.949 163.65 126.168 162.829 126.168ZM162.829 120.106C162.334 120.106 161.895 120.255 161.513 120.554C161.13 120.843 160.897 121.282 160.813 121.87H164.733C164.705 121.329 164.513 120.899 164.159 120.582C163.804 120.265 163.361 120.106 162.829 120.106ZM167.756 126V115.92H169.24V126H167.756ZM174.647 126V119.056H175.963L176.089 120.036C176.313 119.681 176.607 119.401 176.971 119.196C177.344 118.991 177.774 118.888 178.259 118.888C179.36 118.888 180.126 119.322 180.555 120.19C180.807 119.789 181.143 119.471 181.563 119.238C181.992 119.005 182.454 118.888 182.949 118.888C183.817 118.888 184.498 119.149 184.993 119.672C185.488 120.195 185.735 120.974 185.735 122.01V126H184.251V122.164C184.251 120.82 183.738 120.148 182.711 120.148C182.188 120.148 181.759 120.344 181.423 120.736C181.096 121.128 180.933 121.688 180.933 122.416V126H179.449V122.164C179.449 120.82 178.931 120.148 177.895 120.148C177.382 120.148 176.957 120.344 176.621 120.736C176.294 121.128 176.131 121.688 176.131 122.416V126H174.647ZM193.855 119.056V126H192.539L192.427 124.782C192.213 125.211 191.895 125.552 191.475 125.804C191.065 126.047 190.589 126.168 190.047 126.168C189.207 126.168 188.545 125.907 188.059 125.384C187.583 124.861 187.345 124.082 187.345 123.046V119.056H188.815V122.892C188.815 124.236 189.366 124.908 190.467 124.908C191.018 124.908 191.471 124.712 191.825 124.32C192.189 123.928 192.371 123.368 192.371 122.64V119.056H193.855ZM195.729 126V119.056H197.045L197.157 120.274C197.372 119.845 197.684 119.509 198.095 119.266C198.515 119.014 198.996 118.888 199.537 118.888C200.377 118.888 201.035 119.149 201.511 119.672C201.996 120.195 202.239 120.974 202.239 122.01V126H200.769V122.164C200.769 120.82 200.218 120.148 199.117 120.148C198.566 120.148 198.109 120.344 197.745 120.736C197.39 121.128 197.213 121.688 197.213 122.416V126H195.729ZM207.151 126.168C206.479 126.168 205.886 126.009 205.373 125.692C204.859 125.375 204.458 124.941 204.169 124.39C203.879 123.839 203.735 123.214 203.735 122.514C203.735 121.814 203.879 121.193 204.169 120.652C204.458 120.101 204.859 119.672 205.373 119.364C205.895 119.047 206.493 118.888 207.165 118.888C207.715 118.888 208.196 118.995 208.607 119.21C209.027 119.425 209.353 119.728 209.587 120.12V115.92H211.071V126H209.741L209.587 124.922C209.363 125.249 209.055 125.538 208.663 125.79C208.271 126.042 207.767 126.168 207.151 126.168ZM207.417 124.88C208.051 124.88 208.569 124.661 208.971 124.222C209.381 123.783 209.587 123.219 209.587 122.528C209.587 121.828 209.381 121.263 208.971 120.834C208.569 120.395 208.051 120.176 207.417 120.176C206.782 120.176 206.259 120.395 205.849 120.834C205.438 121.263 205.233 121.828 205.233 122.528C205.233 122.985 205.326 123.391 205.513 123.746C205.699 124.101 205.956 124.381 206.283 124.586C206.619 124.782 206.997 124.88 207.417 124.88ZM216.19 126.168C215.527 126.168 214.93 126.019 214.398 125.72C213.875 125.412 213.46 124.987 213.152 124.446C212.844 123.895 212.69 123.256 212.69 122.528C212.69 121.8 212.844 121.165 213.152 120.624C213.469 120.073 213.894 119.649 214.426 119.35C214.958 119.042 215.551 118.888 216.204 118.888C216.867 118.888 217.459 119.042 217.982 119.35C218.514 119.649 218.934 120.073 219.242 120.624C219.559 121.165 219.718 121.8 219.718 122.528C219.718 123.256 219.559 123.895 219.242 124.446C218.934 124.987 218.514 125.412 217.982 125.72C217.45 126.019 216.853 126.168 216.19 126.168ZM216.19 124.894C216.545 124.894 216.871 124.805 217.17 124.628C217.478 124.451 217.725 124.189 217.912 123.844C218.099 123.489 218.192 123.051 218.192 122.528C218.192 122.005 218.099 121.571 217.912 121.226C217.735 120.871 217.492 120.605 217.184 120.428C216.885 120.251 216.559 120.162 216.204 120.162C215.849 120.162 215.518 120.251 215.21 120.428C214.911 120.605 214.669 120.871 214.482 121.226C214.295 121.571 214.202 122.005 214.202 122.528C214.202 123.051 214.295 123.489 214.482 123.844C214.669 124.189 214.911 124.451 215.21 124.628C215.509 124.805 215.835 124.894 216.19 124.894ZM221.911 126.084C221.631 126.084 221.397 125.995 221.211 125.818C221.033 125.631 220.945 125.412 220.945 125.16C220.945 124.899 221.033 124.679 221.211 124.502C221.397 124.315 221.631 124.222 221.911 124.222C222.191 124.222 222.419 124.315 222.597 124.502C222.774 124.679 222.863 124.899 222.863 125.16C222.863 125.412 222.774 125.631 222.597 125.818C222.419 125.995 222.191 126.084 221.911 126.084Z" fill="#757575"/>
</svg>
